<svg xmlns="http://www.w3.org/2000/svg" xmlns:xlink="http://www.w3.org/1999/xlink"
    zoomAndPan="magnify" preserveAspectRatio="xMidYMid meet" version="1.0"
    viewBox="82.06 87.05 218.76 195.11">
    <defs>
        <g>
            <g id="id1"></g>
            <g id="id2"></g>
            <g id="id3"></g>
            <g id="id4"></g>
            <g id="id5"></g>
            <g id="id6"></g>
            <g id="id7"></g>
            <g id="id8"></g>
            <g id="id9"></g>
            <g id="id10"></g>
            <g id="id11"></g>
            <g id="id12"></g>
            <g id="id13"></g>
        </g>
        <clipPath id="id14">
            <path d="M 119 216 L 218 216 L 218 256.257812 L 119 256.257812 Z M 119 216 "
                clip-rule="nonzero"></path>
        </clipPath>
        <clipPath id="id15">
            <path d="M 123 226 L 188 226 L 188 256.257812 L 123 256.257812 Z M 123 226 "
                clip-rule="nonzero"></path>
        </clipPath>
        <clipPath id="id16">
            <path
                d="M 112.683594 87.054688 L 256.617188 87.054688 L 256.617188 133 L 112.683594 133 Z M 112.683594 87.054688 "
                clip-rule="nonzero"></path>
        </clipPath>
    </defs>
    <g fill="rgb(9.408569%, 10.5896%, 7.449341%)" fill-opacity="1">
        <g transform="translate(84.916188, 218.15189)">
            <g>
                <path
                    d="M 10.578125 5.640625 L 11.890625 7.984375 L 7.390625 10.46875 C 6.597656 10.113281 5.859375 9.609375 5.171875 8.953125 C 4.492188 8.296875 3.9375 7.566406 3.5 6.765625 C 2.863281 5.617188 2.535156 4.445312 2.515625 3.25 C 2.492188 2.0625 2.773438 0.96875 3.359375 -0.03125 C 3.941406 -1.039062 4.78125 -1.847656 5.875 -2.453125 C 6.96875 -3.054688 8.09375 -3.335938 9.25 -3.296875 C 10.40625 -3.253906 11.488281 -2.90625 12.5 -2.25 C 13.507812 -1.59375 14.335938 -0.679688 14.984375 0.484375 C 15.515625 1.441406 15.832031 2.410156 15.9375 3.390625 C 16.050781 4.367188 15.945312 5.296875 15.625 6.171875 L 13.1875 5.359375 C 13.582031 4.097656 13.472656 2.910156 12.859375 1.796875 C 12.460938 1.085938 11.960938 0.539062 11.359375 0.15625 C 10.765625 -0.21875 10.113281 -0.40625 9.40625 -0.40625 C 8.707031 -0.414062 8.007812 -0.226562 7.3125 0.15625 C 6.632812 0.53125 6.109375 1.015625 5.734375 1.609375 C 5.359375 2.210938 5.171875 2.867188 5.171875 3.578125 C 5.179688 4.285156 5.378906 4.992188 5.765625 5.703125 C 6.171875 6.429688 6.6875 7.007812 7.3125 7.4375 Z M 10.578125 5.640625 "></path>
            </g>
        </g>
    </g>
    <g fill="rgb(9.408569%, 10.5896%, 7.449341%)" fill-opacity="1">
        <g transform="translate(95.722487, 236.194749)">
            <g>
                <path
                    d="M 8.953125 7.265625 L 7.140625 8.75 L 0.953125 1.15625 L 10.765625 -6.84375 L 16.796875 0.578125 L 14.96875 2.078125 L 10.765625 -3.078125 L 8.640625 -1.359375 L 12.359375 3.1875 L 10.59375 4.625 L 6.875 0.078125 L 4.59375 1.9375 Z M 8.953125 7.265625 "></path>
            </g>
        </g>
    </g>
    <g fill="rgb(9.408569%, 10.5896%, 7.449341%)" fill-opacity="1">
        <g transform="translate(108.288729, 250.899942)">
            <g>
                <path
                    d="M 10.015625 8.3125 L 14.859375 2.46875 L 8 4.90625 L 6.96875 4.046875 L 8.015625 -3 L 3.265625 2.71875 L 1.15625 0.953125 L 9.25 -8.78125 L 11.109375 -7.234375 L 9.71875 1.84375 L 18.34375 -1.21875 L 20.203125 0.328125 L 12.125 10.078125 Z M 10.015625 8.3125 "></path>
            </g>
        </g>
    </g>
    <g fill="rgb(9.408569%, 10.5896%, 7.449341%)" fill-opacity="1">
        <g transform="translate(127.678, 265.784456)">
            <g>
                <path
                    d="M 11.046875 3.34375 L 9.921875 5.40625 L 1.3125 0.71875 L 7.375 -10.390625 L 15.765625 -5.8125 L 14.640625 -3.734375 L 8.8125 -6.921875 L 7.5 -4.53125 L 12.65625 -1.71875 L 11.5625 0.28125 L 6.40625 -2.53125 L 5 0.046875 Z M 11.046875 3.34375 "></path>
            </g>
        </g>
    </g>
    <g fill="rgb(9.408569%, 10.5896%, 7.449341%)" fill-opacity="1">
        <g transform="translate(144.771985, 274.398989)">
            <g>
                <path
                    d="M 5.59375 -11.453125 L 8.34375 -10.5 L 4.953125 -0.796875 L 10.96875 1.296875 L 10.1875 3.546875 L 1.421875 0.5 Z M 5.59375 -11.453125 "></path>
            </g>
        </g>
    </g>
    <g fill="rgb(9.408569%, 10.5896%, 7.449341%)" fill-opacity="1">
        <g transform="translate(161.941976, 279.919123)">
            <g>
                <path
                    d="M 7.5 1.40625 C 6.207031 1.195312 5.082031 0.726562 4.125 0 C 3.175781 -0.71875 2.484375 -1.613281 2.046875 -2.6875 C 1.609375 -3.757812 1.484375 -4.910156 1.671875 -6.140625 C 1.867188 -7.367188 2.34375 -8.425781 3.09375 -9.3125 C 3.84375 -10.195312 4.78125 -10.835938 5.90625 -11.234375 C 7.039062 -11.640625 8.253906 -11.738281 9.546875 -11.53125 C 10.835938 -11.320312 11.957031 -10.851562 12.90625 -10.125 C 13.863281 -9.40625 14.5625 -8.507812 15 -7.4375 C 15.4375 -6.363281 15.554688 -5.210938 15.359375 -3.984375 C 15.171875 -2.753906 14.703125 -1.695312 13.953125 -0.8125 C 13.203125 0.0703125 12.257812 0.710938 11.125 1.109375 C 10 1.515625 8.789062 1.613281 7.5 1.40625 Z M 7.890625 -1.0625 C 8.628906 -0.945312 9.320312 -1.007812 9.96875 -1.25 C 10.625 -1.488281 11.171875 -1.882812 11.609375 -2.4375 C 12.046875 -3 12.320312 -3.664062 12.4375 -4.4375 C 12.5625 -5.207031 12.5 -5.921875 12.25 -6.578125 C 12.007812 -7.242188 11.617188 -7.796875 11.078125 -8.234375 C 10.535156 -8.671875 9.894531 -8.945312 9.15625 -9.0625 C 8.425781 -9.175781 7.734375 -9.109375 7.078125 -8.859375 C 6.421875 -8.617188 5.875 -8.21875 5.4375 -7.65625 C 5.007812 -7.101562 4.734375 -6.441406 4.609375 -5.671875 C 4.492188 -4.898438 4.554688 -4.179688 4.796875 -3.515625 C 5.035156 -2.859375 5.425781 -2.3125 5.96875 -1.875 C 6.519531 -1.445312 7.160156 -1.175781 7.890625 -1.0625 Z M 7.890625 -1.0625 "></path>
            </g>
        </g>
    </g>
    <g fill="rgb(9.408569%, 10.5896%, 7.449341%)" fill-opacity="1">
        <g transform="translate(196.04072, 282.387551)">
            <g>
                <path
                    d="M -0.34375 -12.734375 L 5.34375 -13.5625 C 6.707031 -13.757812 7.945312 -13.675781 9.0625 -13.3125 C 10.1875 -12.945312 11.101562 -12.332031 11.8125 -11.46875 C 12.53125 -10.613281 12.976562 -9.566406 13.15625 -8.328125 C 13.34375 -7.066406 13.210938 -5.921875 12.765625 -4.890625 C 12.328125 -3.867188 11.625 -3.019531 10.65625 -2.34375 C 9.695312 -1.675781 8.535156 -1.242188 7.171875 -1.046875 L 1.484375 -0.21875 Z M 6.6875 -3.40625 C 7.9375 -3.582031 8.878906 -4.070312 9.515625 -4.875 C 10.160156 -5.6875 10.394531 -6.691406 10.21875 -7.890625 C 10.050781 -9.085938 9.539062 -9.976562 8.6875 -10.5625 C 7.84375 -11.144531 6.796875 -11.347656 5.546875 -11.171875 L 2.890625 -10.78125 L 4.03125 -3.015625 Z M 6.6875 -3.40625 "></path>
            </g>
        </g>
    </g>
    <g fill="rgb(9.408569%, 10.5896%, 7.449341%)" fill-opacity="1">
        <g transform="translate(217.535617, 278.358999)">
            <g>
                <path
                    d="M -2.296875 -12.53125 L 0.484375 -13.390625 L 4.21875 -1.296875 L 1.4375 -0.4375 Z M -2.296875 -12.53125 "></path>
            </g>
        </g>
    </g>
    <g fill="rgb(9.408569%, 10.5896%, 7.449341%)" fill-opacity="1">
        <g transform="translate(229.769923, 274.357309)">
            <g>
                <path
                    d="M 6.21875 -10.25 L 8.640625 -11.40625 L 10.859375 -6.765625 C 10.472656 -6.003906 9.929688 -5.300781 9.234375 -4.65625 C 8.535156 -4.007812 7.773438 -3.488281 6.953125 -3.09375 C 5.765625 -2.519531 4.578125 -2.257812 3.390625 -2.3125 C 2.203125 -2.375 1.125 -2.722656 0.15625 -3.359375 C -0.8125 -4.003906 -1.566406 -4.890625 -2.109375 -6.015625 C -2.648438 -7.140625 -2.863281 -8.273438 -2.75 -9.421875 C -2.644531 -10.578125 -2.238281 -11.640625 -1.53125 -12.609375 C -0.820312 -13.578125 0.128906 -14.351562 1.328125 -14.9375 C 2.328125 -15.414062 3.316406 -15.679688 4.296875 -15.734375 C 5.273438 -15.785156 6.195312 -15.625 7.0625 -15.25 L 6.109375 -12.859375 C 4.878906 -13.328125 3.691406 -13.285156 2.546875 -12.734375 C 1.804688 -12.378906 1.226562 -11.914062 0.8125 -11.34375 C 0.394531 -10.769531 0.164062 -10.128906 0.125 -9.421875 C 0.0820312 -8.710938 0.226562 -8.003906 0.5625 -7.296875 C 0.90625 -6.585938 1.363281 -6.03125 1.9375 -5.625 C 2.519531 -5.226562 3.164062 -5.007812 3.875 -4.96875 C 4.582031 -4.925781 5.300781 -5.082031 6.03125 -5.4375 C 6.78125 -5.789062 7.378906 -6.273438 7.828125 -6.890625 Z M 6.21875 -10.25 "></path>
            </g>
        </g>
    </g>
    <g fill="rgb(9.408569%, 10.5896%, 7.449341%)" fill-opacity="1">
        <g transform="translate(248.19359, 264.596567)">
            <g>
                <path
                    d="M -5.890625 -11.3125 L -3.46875 -12.953125 L 3.65625 -2.484375 L 1.234375 -0.84375 Z M -5.890625 -11.3125 "></path>
            </g>
        </g>
    </g>
    <g fill="rgb(9.408569%, 10.5896%, 7.449341%)" fill-opacity="1">
        <g transform="translate(258.600333, 257.164761)">
            <g>
                <path
                    d="M -3.8125 -10.390625 L -6.8125 -7.671875 L -8.40625 -9.4375 L -0.234375 -16.828125 L 1.359375 -15.0625 L -1.640625 -12.34375 L 5.234375 -4.71875 L 3.0625 -2.765625 Z M -3.8125 -10.390625 "></path>
            </g>
        </g>
    </g>
    <g fill="rgb(9.408569%, 10.5896%, 7.449341%)" fill-opacity="1">
        <g transform="translate(271.815082, 244.578676)">
            <g>
                <path
                    d="M 3.90625 -9.421875 L 0.296875 -4.78125 L 1.75 -2.234375 L -0.09375 0.125 L -6.59375 -12.125 L -4.8125 -14.390625 L 8.640625 -11.046875 L 6.75 -8.625 Z M 1.59375 -10.0625 L -3.453125 -11.46875 L -0.875 -6.90625 Z M 1.59375 -10.0625 "></path>
            </g>
        </g>
    </g>
    <g fill="rgb(9.408569%, 10.5896%, 7.449341%)" fill-opacity="1">
        <g transform="translate(284.10792, 227.673813)">
            <g>
                <path
                    d="M -10.453125 -7.296875 L -9.0625 -9.875 L -0.015625 -5.03125 L 2.984375 -10.625 L 5.09375 -9.5 L 0.703125 -1.328125 Z M -10.453125 -7.296875 "></path>
            </g>
        </g>
    </g>
    <g clip-path="url(#id14)">
        <path fill="rgb(50.19989%, 76.078796%, 26.669312%)"
            d="M 217.910156 250.640625 C 214.132812 245.46875 209.828125 240.785156 204.996094 236.59375 C 200.164062 232.402344 194.925781 228.808594 189.285156 225.808594 C 186.636719 224.410156 183.921875 223.15625 181.144531 222.042969 C 178.363281 220.933594 175.53125 219.976562 172.652344 219.167969 C 169.769531 218.363281 166.851562 217.710938 163.902344 217.214844 C 160.953125 216.71875 157.984375 216.382812 155 216.207031 C 152.011719 216.027344 149.027344 216.007812 146.039062 216.152344 C 143.050781 216.292969 140.078125 216.59375 137.121094 217.050781 C 134.164062 217.511719 131.242188 218.128906 128.351562 218.898438 C 125.460938 219.671875 122.617188 220.59375 119.824219 221.671875 C 121.179688 223.527344 122.605469 225.324219 124.105469 227.0625 C 125.609375 228.800781 127.175781 230.476562 128.8125 232.085938 C 130.449219 233.695312 132.148438 235.238281 133.90625 236.707031 C 135.667969 238.179688 137.488281 239.574219 139.363281 240.898438 C 141.234375 242.21875 143.160156 243.460938 145.136719 244.625 C 147.109375 245.789062 149.128906 246.871094 151.191406 247.871094 C 153.253906 248.867188 155.355469 249.78125 157.492188 250.609375 C 159.628906 251.433594 161.796875 252.171875 163.992188 252.820312 C 166.1875 253.46875 168.40625 254.027344 170.648438 254.496094 C 172.890625 254.960938 175.148438 255.335938 177.421875 255.617188 C 179.691406 255.898438 181.972656 256.089844 184.261719 256.183594 C 186.546875 256.277344 188.835938 256.28125 191.125 256.1875 C 193.410156 256.09375 195.691406 255.910156 197.964844 255.628906 C 200.234375 255.351562 202.492188 254.980469 204.734375 254.515625 C 206.976562 254.050781 209.199219 253.496094 211.394531 252.847656 C 213.59375 252.203125 215.761719 251.464844 217.898438 250.640625 Z M 217.910156 250.640625 "
            fill-opacity="1" fill-rule="evenodd"></path>
    </g>
    <path fill="rgb(50.19989%, 76.078796%, 26.669312%)"
        d="M 217.867188 250.578125 L 217.867188 250.640625 C 224.660156 248 231.007812 244.535156 236.910156 240.242188 C 242.8125 235.949219 248.074219 230.972656 252.695312 225.3125 C 248.078125 223.46875 243.335938 222.046875 238.46875 221.046875 C 233.597656 220.046875 228.679688 219.480469 223.714844 219.355469 C 218.746094 219.226562 213.808594 219.539062 208.894531 220.285156 C 203.980469 221.035156 199.171875 222.210938 194.464844 223.816406 C 199.261719 227.394531 203.628906 231.441406 207.574219 235.953125 C 211.515625 240.464844 214.949219 245.339844 217.867188 250.578125 Z M 217.867188 250.578125 "
        fill-opacity="1" fill-rule="evenodd"></path>
    <g clip-path="url(#id15)">
        <path fill="rgb(100%, 100%, 100%)"
            d="M 187.183594 256.246094 C 185.230469 253.917969 183.160156 251.703125 180.964844 249.597656 C 178.773438 247.496094 176.476562 245.519531 174.070312 243.664062 C 171.667969 241.8125 169.171875 240.097656 166.582031 238.515625 C 163.992188 236.933594 161.324219 235.5 158.582031 234.207031 C 155.835938 232.917969 153.03125 231.777344 150.164062 230.792969 C 147.296875 229.808594 144.386719 228.980469 141.429688 228.3125 C 138.476562 227.644531 135.492188 227.136719 132.484375 226.792969 C 129.472656 226.449219 126.453125 226.269531 123.421875 226.253906 L 123.960938 226.890625 C 129.125 227.511719 134.1875 228.609375 139.152344 230.175781 C 144.113281 231.742188 148.886719 233.753906 153.476562 236.214844 C 158.066406 238.675781 162.390625 241.539062 166.453125 244.804688 C 170.511719 248.074219 174.238281 251.6875 177.632812 255.652344 C 177.980469 255.652344 178.328125 255.738281 178.6875 255.757812 C 179.046875 255.777344 179.554688 255.863281 179.996094 255.894531 C 181.894531 256.066406 183.816406 256.183594 185.757812 256.214844 C 186.230469 256.214844 186.707031 256.214844 187.183594 256.214844 Z M 187.183594 256.246094 "
            fill-opacity="1" fill-rule="evenodd"></path>
    </g>
    <path fill="rgb(100%, 100%, 100%)"
        d="M 138.179688 221.945312 C 141.230469 222.097656 144.265625 222.414062 147.285156 222.898438 C 150.300781 223.378906 153.285156 224.027344 156.230469 224.835938 C 159.179688 225.648438 162.074219 226.617188 164.917969 227.746094 C 167.761719 228.871094 170.535156 230.152344 173.238281 231.585938 C 175.941406 233.015625 178.558594 234.59375 181.089844 236.3125 C 183.625 238.03125 186.054688 239.882812 188.386719 241.871094 C 190.71875 243.855469 192.9375 245.964844 195.039062 248.191406 C 197.144531 250.421875 199.117188 252.761719 200.96875 255.207031 C 203.605469 254.792969 206.246094 254.238281 208.746094 253.582031 C 206.785156 251.109375 204.691406 248.757812 202.464844 246.519531 C 200.238281 244.285156 197.894531 242.183594 195.433594 240.214844 C 192.972656 238.242188 190.40625 236.417969 187.742188 234.738281 C 185.078125 233.054688 182.328125 231.53125 179.492188 230.160156 C 176.65625 228.789062 173.753906 227.585938 170.78125 226.542969 C 167.8125 225.5 164.792969 224.628906 161.722656 223.929688 C 158.65625 223.226562 155.558594 222.703125 152.433594 222.351562 C 149.304688 222 146.167969 221.828125 143.023438 221.832031 C 141.398438 221.832031 139.785156 221.832031 138.179688 221.945312 Z M 138.179688 221.945312 "
        fill-opacity="1" fill-rule="evenodd"></path>
    <path fill="rgb(100%, 100%, 100%)"
        d="M 206.109375 234.289062 C 214.546875 229.507812 223.539062 226.304688 233.085938 224.675781 C 222.675781 224.945312 212.667969 227.097656 203.058594 231.136719 C 204.101562 232.15625 205.117188 233.207031 206.109375 234.289062 Z M 206.109375 234.289062 "
        fill-opacity="1" fill-rule="evenodd"></path>
    <path fill="rgb(100%, 100%, 100%)"
        d="M 245.214844 231.050781 C 239.207031 231.210938 233.285156 232.007812 227.453125 233.449219 C 221.617188 234.890625 216 236.9375 210.605469 239.59375 C 211.660156 240.878906 212.578125 242.207031 213.507812 243.542969 C 218.308594 240.390625 223.382812 237.761719 228.722656 235.65625 C 234.0625 233.554688 239.558594 232.019531 245.214844 231.050781 Z M 245.214844 231.050781 "
        fill-opacity="1" fill-rule="evenodd"></path>
    <g clip-path="url(#id16)">
        <path fill="rgb(50.19989%, 76.078796%, 26.669312%)"
            d="M 188.566406 129.015625 C 212.410156 123.453125 232.074219 111.527344 256.316406 122.648438 C 254.402344 119.933594 252.332031 117.34375 250.113281 114.875 C 247.890625 112.40625 245.535156 110.078125 243.039062 107.886719 C 240.546875 105.699219 237.933594 103.664062 235.199219 101.789062 C 232.464844 99.910156 229.632812 98.199219 226.699219 96.660156 C 223.765625 95.117188 220.75 93.753906 217.65625 92.570312 C 214.5625 91.386719 211.410156 90.390625 208.199219 89.582031 C 204.988281 88.773438 201.742188 88.160156 198.457031 87.734375 C 195.175781 87.3125 191.878906 87.085938 188.566406 87.054688 L 187.703125 87.054688 C 185.785156 87.054688 183.871094 87.117188 181.960938 87.25 C 180.050781 87.378906 178.144531 87.574219 176.246094 87.835938 C 174.347656 88.097656 172.460938 88.425781 170.585938 88.816406 C 168.707031 89.207031 166.847656 89.660156 165.003906 90.179688 C 163.160156 90.699219 161.332031 91.28125 159.527344 91.925781 C 157.722656 92.570312 155.941406 93.273438 154.183594 94.039062 C 152.425781 94.808594 150.695312 95.632812 148.992188 96.519531 C 147.292969 97.40625 145.625 98.347656 143.984375 99.347656 C 142.347656 100.347656 140.746094 101.402344 139.179688 102.511719 C 137.613281 103.621094 136.089844 104.785156 134.601562 106 C 133.117188 107.214844 131.671875 108.480469 130.269531 109.792969 C 128.871094 111.105469 127.515625 112.46875 126.207031 113.875 C 124.898438 115.28125 123.640625 116.734375 122.429688 118.226562 C 121.21875 119.71875 120.0625 121.253906 118.957031 122.828125 C 117.851562 124.398438 116.800781 126.007812 115.804688 127.652344 C 114.808594 129.300781 113.867188 130.976562 112.984375 132.6875 C 112.984375 132.6875 120.375 122.222656 133.628906 124.261719 C 141.410156 117.023438 158.042969 105.277344 186.277344 102.1875 C 186.277344 102.1875 157.261719 111.496094 143.140625 127.230469 C 160.617188 133.25 175.257812 132.125 188.566406 129.015625 Z M 188.566406 129.015625 "
            fill-opacity="1" fill-rule="evenodd"></path>
    </g>
    <path fill="rgb(100%, 100%, 100%)"
        d="M 136.207031 111.460938 C 139.753906 108.34375 143.554688 105.570312 147.605469 103.144531 C 151.652344 100.71875 155.886719 98.675781 160.304688 97.023438 C 164.722656 95.367188 169.25 94.121094 173.890625 93.289062 C 178.53125 92.460938 183.210938 92.054688 187.921875 92.074219 C 191.699219 92.058594 195.453125 92.3125 199.191406 92.839844 C 202.933594 93.367188 206.613281 94.164062 210.238281 95.222656 C 213.863281 96.28125 217.394531 97.597656 220.832031 99.167969 C 224.269531 100.738281 227.574219 102.546875 230.753906 104.597656 C 227.730469 102.167969 224.53125 100.007812 221.152344 98.113281 C 217.773438 96.21875 214.261719 94.621094 210.617188 93.316406 C 206.972656 92.011719 203.246094 91.019531 199.4375 90.339844 C 195.628906 89.660156 191.792969 89.300781 187.921875 89.261719 L 187.164062 89.261719 C 184.78125 89.261719 182.40625 89.382812 180.035156 89.628906 C 177.667969 89.875 175.316406 90.238281 172.984375 90.726562 C 170.652344 91.210938 168.351562 91.816406 166.078125 92.539062 C 163.808594 93.261719 161.582031 94.097656 159.394531 95.050781 C 157.210938 96.003906 155.078125 97.066406 153 98.238281 C 150.921875 99.40625 148.910156 100.683594 146.964844 102.0625 C 145.015625 103.441406 143.144531 104.914062 141.34375 106.484375 C 139.546875 108.054688 137.835938 109.714844 136.207031 111.460938 Z M 136.207031 111.460938 "
        fill-opacity="1" fill-rule="evenodd"></path>
    <path fill="rgb(100%, 100%, 100%)"
        d="M 150.433594 125.875 C 158.671875 119.421875 167.761719 114.574219 177.695312 111.335938 C 181.257812 110.148438 184.875 109.15625 188.546875 108.363281 C 184.945312 108.585938 181.390625 109.132812 177.886719 110.003906 C 174.382812 110.871094 170.984375 112.050781 167.691406 113.535156 C 164.398438 115.023438 161.265625 116.792969 158.292969 118.847656 C 155.316406 120.902344 152.550781 123.210938 149.988281 125.769531 Z M 150.433594 125.875 "
        fill-opacity="1" fill-rule="evenodd"></path>
    <g fill="rgb(9.408569%, 10.5896%, 7.449341%)" fill-opacity="1">
        <g transform="translate(79.518775, 194.786019)">
            <g>
                <path
                    d="M 15.023438 0.738281 C 23.535156 0.738281 30.273438 -3.550781 33.972656 -16.136719 L 34.046875 -16.136719 L 37.304688 -16.210938 C 38.117188 -16.210938 38.636719 -16.949219 38.414062 -17.691406 C 37.746094 -20.28125 36.488281 -21.910156 32.9375 -21.910156 C 29.234375 -21.910156 26.941406 -21.316406 22.796875 -21.316406 C 21.019531 -21.242188 19.6875 -21.390625 18.429688 -21.464844 C 17.617188 -21.613281 16.875 -20.945312 17.097656 -20.132812 C 17.691406 -17.761719 19.761719 -15.246094 23.535156 -15.246094 C 24.425781 -15.246094 25.386719 -15.320312 26.421875 -15.394531 C 23.683594 -7.253906 19.6875 -3.699219 15.46875 -4.589844 C 10.878906 -4.144531 9.179688 -11.769531 12.582031 -24.792969 C 17.171875 -42.335938 22.128906 -47.960938 28.347656 -47.960938 C 30.863281 -47.960938 31.308594 -44.925781 28.71875 -35.007812 C 28.347656 -33.675781 27.605469 -29.605469 32.714844 -28.421875 C 33.234375 -28.347656 33.675781 -28.570312 33.898438 -29.015625 C 40.929688 -44.039062 39.597656 -53.957031 27.089844 -52.921875 C 16.136719 -54.621094 8.734375 -43.964844 3.921875 -24.648438 C 0.148438 -9.472656 4.21875 0.738281 15.023438 0.738281 Z M 15.023438 0.738281 "></path>
            </g>
        </g>
    </g>
    <g fill="rgb(9.408569%, 10.5896%, 7.449341%)" fill-opacity="1">
        <g transform="translate(118.00511, 194.786019)">
            <g>
                <path
                    d="M 34.785156 -16.503906 C 34.566406 -16.652344 34.269531 -16.578125 34.195312 -16.210938 C 31.234375 -5.847656 25.238281 -4.957031 19.910156 -4.957031 C 15.097656 -4.957031 11.324219 -6.585938 10.730469 -11.769531 C 11.25 -11.621094 11.84375 -11.546875 12.507812 -11.398438 C 18.28125 -10.363281 24.792969 -13.324219 29.015625 -21.910156 C 33.011719 -30.050781 30.199219 -37.746094 22.796875 -37.453125 C 15.097656 -39.449219 7.402344 -35.304688 3.699219 -21.613281 C -1.925781 -0.886719 12.0625 1.183594 17.320312 1.183594 C 28.125 1.183594 33.972656 -4.292969 36.488281 -12.730469 C 36.933594 -14.285156 36.414062 -15.46875 34.785156 -16.503906 Z M 19.539062 -33.675781 C 24.128906 -32.714844 24.574219 -29.902344 22.351562 -24.351562 C 19.910156 -19.167969 18.058594 -16.503906 11.027344 -17.023438 C 11.25 -18.207031 11.546875 -19.464844 11.917969 -20.796875 C 14.285156 -28.867188 16.136719 -33.304688 19.539062 -33.675781 Z M 19.539062 -33.675781 "></path>
            </g>
        </g>
    </g>
    <g fill="rgb(9.408569%, 10.5896%, 7.449341%)" fill-opacity="1">
        <g transform="translate(149.312252, 194.786019)">
            <g>
                <path
                    d="M 39.152344 -16.503906 C 38.929688 -16.652344 38.636719 -16.578125 38.5625 -16.28125 C 35.378906 -5.847656 31.972656 -4.957031 29.605469 -4.957031 C 26.644531 -4.957031 26.347656 -7.03125 27.976562 -12.730469 L 36.933594 -44.484375 C 39.226562 -52.550781 37.453125 -55.140625 33.011719 -55.140625 C 32.566406 -55.140625 32.195312 -54.84375 32.046875 -54.402344 L 26.273438 -34.933594 C 24.941406 -37.15625 22.871094 -38.117188 20.871094 -37.671875 C 12.359375 -38.339844 6.734375 -31.085938 3.40625 -19.984375 C -1.109375 -4.886719 4.21875 4.367188 14.730469 0 C 16.136719 0.0742188 17.617188 -1.257812 18.949219 -3.257812 C 19.6875 0.148438 22.425781 1.183594 27.015625 1.183594 C 34.34375 1.183594 38.117188 -4.292969 40.855469 -12.730469 C 41.300781 -14.285156 40.78125 -15.46875 39.152344 -16.503906 Z M 12.65625 -3.773438 C 8.585938 -5.699219 9.179688 -11.917969 11.324219 -19.097656 C 14.136719 -28.421875 17.984375 -32.9375 21.316406 -32.9375 C 24.054688 -32.9375 24.5 -30.273438 23.535156 -25.90625 L 20.796875 -16.652344 C 20.503906 -15.617188 20.207031 -14.65625 19.984375 -13.765625 C 18.578125 -8.214844 15.246094 -3.109375 12.65625 -3.773438 Z M 12.65625 -3.773438 "></path>
            </g>
        </g>
    </g>
    <g fill="rgb(9.408569%, 10.5896%, 7.449341%)" fill-opacity="1">
        <g transform="translate(184.986114, 194.786019)">
            <g>
                <path
                    d="M 34.785156 -16.503906 C 34.566406 -16.652344 34.269531 -16.578125 34.195312 -16.210938 C 31.234375 -5.847656 25.238281 -4.957031 19.910156 -4.957031 C 15.097656 -4.957031 11.324219 -6.585938 10.730469 -11.769531 C 11.25 -11.621094 11.84375 -11.546875 12.507812 -11.398438 C 18.28125 -10.363281 24.792969 -13.324219 29.015625 -21.910156 C 33.011719 -30.050781 30.199219 -37.746094 22.796875 -37.453125 C 15.097656 -39.449219 7.402344 -35.304688 3.699219 -21.613281 C -1.925781 -0.886719 12.0625 1.183594 17.320312 1.183594 C 28.125 1.183594 33.972656 -4.292969 36.488281 -12.730469 C 36.933594 -14.285156 36.414062 -15.46875 34.785156 -16.503906 Z M 19.539062 -33.675781 C 24.128906 -32.714844 24.574219 -29.902344 22.351562 -24.351562 C 19.910156 -19.167969 18.058594 -16.503906 11.027344 -17.023438 C 11.25 -18.207031 11.546875 -19.464844 11.917969 -20.796875 C 14.285156 -28.867188 16.136719 -33.304688 19.539062 -33.675781 Z M 19.539062 -33.675781 "></path>
            </g>
        </g>
    </g>
    <g fill="rgb(9.408569%, 10.5896%, 7.449341%)" fill-opacity="1">
        <g transform="translate(216.293256, 194.786019)">
            <g>
                <path
                    d="M 5.476562 1.109375 C 5.996094 1.183594 6.4375 0.886719 6.585938 0.296875 L 15.320312 -31.972656 L 21.980469 -32.195312 C 22.722656 -32.195312 23.242188 -32.640625 23.019531 -33.304688 C 22.277344 -35.453125 20.574219 -37.597656 17.320312 -37.597656 L 16.875 -37.597656 L 17.617188 -40.410156 C 19.316406 -45.222656 20.355469 -45.890625 23.386719 -45.890625 L 28.125 -45.890625 C 28.792969 -45.890625 29.308594 -46.40625 29.308594 -47.074219 C 29.015625 -51.070312 27.3125 -53.140625 22.871094 -53.140625 C 16.210938 -53.140625 12.285156 -49.664062 9.992188 -42.78125 L 8.511719 -37.304688 L 6.734375 -37.304688 C 4.886719 -37.304688 3.625 -37.378906 2.367188 -37.378906 C 1.628906 -37.378906 0.960938 -37.082031 1.109375 -36.414062 C 1.554688 -34.34375 3.035156 -31.457031 5.699219 -31.53125 L 6.957031 -31.605469 L 0.222656 -6.734375 C -0.738281 -3.109375 1.332031 0.445312 5.476562 1.109375 Z M 5.476562 1.109375 "></path>
            </g>
        </g>
    </g>
    <g fill="rgb(9.408569%, 10.5896%, 7.449341%)" fill-opacity="1">
        <g transform="translate(232.871992, 194.786019)">
            <g>
                <path
                    d="M 34.785156 -16.503906 C 34.566406 -16.652344 34.269531 -16.578125 34.195312 -16.210938 C 31.234375 -5.847656 25.238281 -4.957031 19.910156 -4.957031 C 15.097656 -4.957031 11.324219 -6.585938 10.730469 -11.769531 C 11.25 -11.621094 11.84375 -11.546875 12.507812 -11.398438 C 18.28125 -10.363281 24.792969 -13.324219 29.015625 -21.910156 C 33.011719 -30.050781 30.199219 -37.746094 22.796875 -37.453125 C 15.097656 -39.449219 7.402344 -35.304688 3.699219 -21.613281 C -1.925781 -0.886719 12.0625 1.183594 17.320312 1.183594 C 28.125 1.183594 33.972656 -4.292969 36.488281 -12.730469 C 36.933594 -14.285156 36.414062 -15.46875 34.785156 -16.503906 Z M 19.539062 -33.675781 C 24.128906 -32.714844 24.574219 -29.902344 22.351562 -24.351562 C 19.910156 -19.167969 18.058594 -16.503906 11.027344 -17.023438 C 11.25 -18.207031 11.546875 -19.464844 11.917969 -20.796875 C 14.285156 -28.867188 16.136719 -33.304688 19.539062 -33.675781 Z M 19.539062 -33.675781 "></path>
            </g>
        </g>
    </g>
    <g fill="rgb(9.408569%, 10.5896%, 7.449341%)" fill-opacity="1">
        <g transform="translate(264.179134, 194.786019)">
            <g>
                <path
                    d="M 34.785156 -16.503906 C 34.566406 -16.652344 34.269531 -16.578125 34.195312 -16.210938 C 31.234375 -5.847656 25.238281 -4.957031 19.910156 -4.957031 C 12.953125 -4.957031 8.289062 -8.363281 11.917969 -20.796875 C 14.210938 -28.644531 16.0625 -33.011719 19.316406 -33.675781 C 24.792969 -33.378906 24.792969 -29.085938 22.277344 -19.910156 C 22.054688 -19.097656 22.128906 -18.132812 23.757812 -18.132812 C 26.273438 -18.132812 29.085938 -19.097656 30.421875 -23.90625 C 32.9375 -33.085938 28.199219 -40.265625 20.503906 -37.746094 C 12.730469 -38.636719 6.882812 -34.121094 3.699219 -21.613281 C -1.035156 -3.109375 7.625 1.183594 17.320312 1.183594 C 28.125 1.183594 33.972656 -4.292969 36.488281 -12.730469 C 36.933594 -14.285156 36.414062 -15.46875 34.785156 -16.503906 Z M 34.785156 -16.503906 "></path>
            </g>
        </g>
    </g>
</svg>