<?xml version="1.0" encoding="UTF-8"?>
<!-- Generator: Adobe Illustrator 27.7.0, SVG Export Plug-In . SVG Version: 6.00 Build 0)  -->
<svg xmlns="http://www.w3.org/2000/svg" xmlns:xlink="http://www.w3.org/1999/xlink" version="1.1" id="Capa_1" x="0px" y="0px" viewBox="0 0 500 230" style="enable-background:new 0 0 500 230;" xml:space="preserve">
<style type="text/css">
	.st0{fill:none;stroke:#FF3300;stroke-width:4.0686;stroke-linecap:round;stroke-linejoin:round;stroke-miterlimit:10;}
</style>
<g>
	<line class="st0" x1="214.3" y1="30.3" x2="214.3" y2="156.2"></line>
	<polyline class="st0" points="214.3,156.2 88.3,156.2 88.3,30.3 214.3,30.3  "></polyline>
	<polyline class="st0" points="43.1,201.5 43.1,75.5 169,75.5 169,201.5  "></polyline>
	<line class="st0" x1="214.3" y1="30.2" x2="169" y2="75.5"></line>
	<line class="st0" x1="88.3" y1="30.3" x2="43.1" y2="75.5"></line>
	<polyline class="st0" points="88.3,156.2 43.1,201.5 169,201.5 214.3,156.2  "></polyline>
	<g>
		<path d="M276.5,64c2.1,0,3.8-0.2,5.1-0.7c2.5-0.9,3.7-2.5,3.7-4.9c0-1.4-0.6-2.5-1.8-3.3c-1.2-0.7-3.2-1.4-5.8-2l-4.5-1    c-4.4-1-7.5-2.1-9.2-3.3c-2.9-2-4.3-5-4.3-9.2c0-3.8,1.4-7,4.1-9.5c2.8-2.5,6.8-3.8,12.2-3.8c4.5,0,8.3,1.2,11.5,3.6    c3.2,2.4,4.8,5.8,5,10.3H284c-0.2-2.6-1.3-4.4-3.3-5.4c-1.4-0.7-3.1-1.1-5.2-1.1c-2.3,0-4.1,0.5-5.5,1.4c-1.4,0.9-2,2.2-2,3.9    c0,1.5,0.7,2.7,2,3.4c0.9,0.5,2.7,1.1,5.5,1.8l7.3,1.8c3.2,0.8,5.6,1.8,7.3,3.1c2.5,2,3.8,4.9,3.8,8.7c0,3.9-1.5,7.1-4.5,9.7    c-3,2.6-7.2,3.8-12.6,3.8c-5.5,0-9.9-1.3-13.1-3.8c-3.2-2.5-4.8-6-4.8-10.4h8.5c0.3,1.9,0.8,3.4,1.6,4.4    C270.5,63.2,273,64,276.5,64z"></path>
		<path d="M317.4,47.4c-0.7-1.5-2-2.3-4.1-2.3c-2.3,0-3.9,0.8-4.7,2.3c-0.4,0.9-0.7,2.2-0.7,3.9v18.9h-8.3V38.8h8v4.6    c1-1.6,2-2.8,2.9-3.5c1.6-1.2,3.7-1.8,6.2-1.8c2.4,0,4.3,0.5,5.8,1.6c1.2,1,2.1,2.2,2.7,3.8c1.1-1.8,2.4-3.2,4-4.1    c1.7-0.9,3.6-1.3,5.6-1.3c1.4,0,2.7,0.3,4.1,0.8c1.3,0.5,2.6,1.5,3.7,2.8c0.9,1.1,1.5,2.4,1.8,4c0.2,1.1,0.3,2.6,0.3,4.6    l-0.1,19.8h-8.4v-20c0-1.2-0.2-2.2-0.6-2.9c-0.7-1.5-2.1-2.2-4-2.2c-2.3,0-3.8,0.9-4.7,2.8c-0.4,1-0.7,2.2-0.7,3.6v18.7H318V51.5    C318,49.6,317.8,48.3,317.4,47.4z"></path>
		<path d="M353.5,42.2c2.2-2.8,5.9-4.1,11.2-4.1c3.4,0,6.5,0.7,9.2,2c2.7,1.4,4,3.9,4,7.7v14.4c0,1,0,2.2,0.1,3.6    c0.1,1.1,0.2,1.8,0.5,2.2c0.3,0.4,0.7,0.7,1.2,1v1.2h-8.9c-0.3-0.6-0.4-1.2-0.5-1.8s-0.2-1.2-0.2-1.9c-1.1,1.2-2.4,2.3-3.9,3.1    c-1.8,1-3.8,1.5-6,1.5c-2.8,0-5.2-0.8-7-2.4c-1.9-1.6-2.8-3.9-2.8-6.9c0-3.9,1.5-6.7,4.5-8.4c1.6-0.9,4-1.6,7.2-2l2.8-0.3    c1.5-0.2,2.6-0.4,3.3-0.7c1.2-0.5,1.8-1.3,1.8-2.3c0-1.3-0.4-2.2-1.3-2.7c-0.9-0.5-2.2-0.7-3.9-0.7c-1.9,0-3.3,0.5-4.1,1.4    c-0.6,0.7-1,1.7-1.2,2.9h-7.9C351.3,46.2,352.1,43.9,353.5,42.2z M359.6,64.2c0.8,0.6,1.7,1,2.8,1c1.8,0,3.4-0.5,4.9-1.6    c1.5-1,2.3-2.9,2.3-5.7v-3.1c-0.5,0.3-1,0.6-1.6,0.8c-0.5,0.2-1.3,0.4-2.2,0.6l-1.8,0.3c-1.7,0.3-3,0.7-3.7,1.1    c-1.3,0.7-1.9,1.9-1.9,3.5C358.4,62.6,358.8,63.6,359.6,64.2z"></path>
		<path d="M400.9,46.3c-3.3,0-5.5,1.1-6.7,3.2c-0.6,1.2-1,3.1-1,5.6v15H385V38.8h7.8v5.5c1.3-2.1,2.4-3.5,3.3-4.3    c1.5-1.3,3.5-1.9,6-1.9c0.2,0,0.3,0,0.4,0c0.1,0,0.3,0,0.7,0v8.4c-0.5-0.1-1-0.1-1.4-0.1C401.5,46.4,401.1,46.3,400.9,46.3z"></path>
		<path d="M422.5,64.3v6.1l-3.9,0.1c-3.9,0.1-6.5-0.5-8-2c-0.9-0.9-1.4-2.4-1.4-4.4V44.9h-4.4V39h4.4v-8.8h8.1V39h5.1v5.9h-5.1v16.6    c0,1.3,0.2,2.1,0.5,2.4c0.3,0.3,1.3,0.5,3,0.5c0.2,0,0.5,0,0.8,0C421.9,64.4,422.2,64.3,422.5,64.3z"></path>
	</g>
	<g>
		<path d="M291.1,131.6c-3.2,2.9-7.2,4.4-12.2,4.4c-6.1,0-10.9-2-14.4-5.9c-3.5-3.9-5.2-9.3-5.2-16.2c0-7.4,2-13.1,6-17.1    c3.5-3.5,7.9-5.2,13.2-5.2c7.1,0,12.4,2.3,15.7,7c1.8,2.6,2.8,5.3,2.9,7.9h-8.9c-0.6-2-1.3-3.6-2.2-4.6c-1.6-1.8-4-2.8-7.2-2.8    c-3.2,0-5.8,1.3-7.6,3.9c-1.9,2.6-2.8,6.3-2.8,11.1s1,8.3,3,10.7c2,2.4,4.5,3.6,7.5,3.6c3.1,0,5.5-1,7.1-3.1    c0.9-1.1,1.7-2.7,2.2-4.9h8.8C296.2,124.9,294.2,128.7,291.1,131.6z"></path>
		<path d="M311.5,92v7.6h-8.3V92H311.5z M311.5,103.3v31.4h-8.3v-31.4H311.5z"></path>
		<path d="M333.8,128.9v6.1l-3.9,0.1c-3.9,0.1-6.5-0.5-8-2c-0.9-0.9-1.4-2.4-1.4-4.4v-19.3h-4.4v-5.9h4.4v-8.8h8.1v8.8h5.1v5.9h-5.1    v16.6c0,1.3,0.2,2.1,0.5,2.4c0.3,0.3,1.3,0.5,3,0.5c0.2,0,0.5,0,0.8,0C333.3,128.9,333.6,128.9,333.8,128.9z"></path>
		<path d="M351.9,126.5l6.5-23.2h8.7l-10.8,30.9c-2.1,6-3.7,9.6-4.9,11.1c-1.2,1.4-3.6,2.1-7.3,2.1c-0.7,0-1.3,0-1.8,0    c-0.4,0-1.1,0-2-0.1v-6.6l1,0.1c0.8,0,1.6,0,2.3-0.1c0.7-0.1,1.3-0.3,1.8-0.7c0.5-0.3,0.9-1,1.3-2c0.4-1,0.6-1.7,0.5-1.9    l-11.5-32.8h9.1L351.9,126.5z"></path>
	</g>
	<g>
		<path d="M291.1,196.1c-3.2,2.9-7.2,4.4-12.2,4.4c-6.1,0-10.9-2-14.4-5.9c-3.5-3.9-5.2-9.3-5.2-16.2c0-7.4,2-13.1,6-17.1    c3.5-3.5,7.9-5.2,13.2-5.2c7.1,0,12.4,2.3,15.7,7c1.8,2.6,2.8,5.3,2.9,7.9h-8.9c-0.6-2-1.3-3.6-2.2-4.6c-1.6-1.8-4-2.8-7.2-2.8    c-3.2,0-5.8,1.3-7.6,3.9s-2.8,6.3-2.8,11.1c0,4.8,1,8.3,3,10.7c2,2.4,4.5,3.6,7.5,3.6c3.1,0,5.5-1,7.1-3.1    c0.9-1.1,1.7-2.7,2.2-4.9h8.8C296.2,189.5,294.2,193.2,291.1,196.1z"></path>
		<path d="M303.2,156.8h8.2v42.5h-8.2V156.8z"></path>
		<path d="M339.6,194.9c-0.1,0.1-0.3,0.4-0.6,0.9c-0.3,0.5-0.7,0.9-1.1,1.3c-1.3,1.2-2.5,1.9-3.7,2.4c-1.2,0.4-2.6,0.6-4.2,0.6    c-4.6,0-7.8-1.7-9.4-5c-0.9-1.8-1.4-4.6-1.4-8.2v-18.9h8.4v18.9c0,1.8,0.2,3.1,0.6,4c0.7,1.6,2.2,2.4,4.4,2.4    c2.8,0,4.7-1.1,5.8-3.4c0.5-1.2,0.8-2.9,0.8-4.9v-17.1h8.3v31.4h-8V194.9z"></path>
		<path d="M377.1,169.3c2.5,1.6,3.9,4.3,4.2,8.1h-8.2c-0.1-1.1-0.4-1.9-0.9-2.5c-0.9-1.1-2.4-1.7-4.6-1.7c-1.8,0-3.1,0.3-3.8,0.8    c-0.8,0.6-1.1,1.2-1.1,2c0,0.9,0.4,1.6,1.2,2c0.8,0.4,3.7,1.2,8.6,2.3c3.3,0.8,5.7,1.9,7.3,3.5c1.6,1.6,2.4,3.5,2.4,5.9    c0,3.1-1.2,5.7-3.5,7.6c-2.3,2-5.9,3-10.7,3c-4.9,0-8.6-1-10.9-3.1c-2.4-2.1-3.5-4.7-3.5-8h8.3c0.2,1.5,0.5,2.5,1.1,3.1    c1,1.1,2.9,1.6,5.6,1.6c1.6,0,2.9-0.2,3.8-0.7c1-0.5,1.4-1.2,1.4-2.2c0-0.9-0.4-1.6-1.2-2.1c-0.8-0.5-3.6-1.3-8.6-2.5    c-3.6-0.9-6.1-2-7.5-3.3c-1.5-1.3-2.2-3.2-2.2-5.6c0-2.9,1.1-5.4,3.4-7.5c2.3-2.1,5.5-3.1,9.6-3.1    C371.5,167,374.7,167.8,377.1,169.3z"></path>
		<path d="M402.7,193.4v6.1l-3.9,0.1c-3.9,0.1-6.5-0.5-8-2c-0.9-0.9-1.4-2.4-1.4-4.4V174h-4.4v-5.9h4.4v-8.8h8.1v8.8h5.1v5.9h-5.1    v16.6c0,1.3,0.2,2.1,0.5,2.4c0.3,0.3,1.3,0.5,3,0.5c0.3,0,0.5,0,0.8,0C402.2,193.5,402.4,193.5,402.7,193.4z"></path>
		<path d="M434.9,190.1c-0.2,1.9-1.2,3.8-2.9,5.7c-2.7,3.1-6.5,4.6-11.3,4.6c-4,0-7.5-1.3-10.6-3.9c-3.1-2.6-4.6-6.8-4.6-12.6    c0-5.4,1.4-9.6,4.1-12.5c2.8-2.9,6.3-4.4,10.7-4.4c2.6,0,5,0.5,7.1,1.5c2.1,1,3.8,2.5,5.2,4.6c1.2,1.9,2,4,2.4,6.5    c0.2,1.4,0.3,3.5,0.3,6.2h-21.5c0.1,3.1,1.1,5.4,3,6.6c1.1,0.8,2.5,1.2,4.1,1.2c1.7,0,3.1-0.5,4.1-1.4c0.6-0.5,1.1-1.2,1.5-2.2    H434.9z M426.7,180.4c-0.1-2.2-0.8-3.8-2-4.9c-1.2-1.1-2.6-1.7-4.4-1.7c-1.9,0-3.4,0.6-4.4,1.8c-1,1.2-1.7,2.8-2,4.8H426.7z"></path>
		<path d="M456.6,175.5c-3.3,0-5.5,1.1-6.7,3.2c-0.6,1.2-1,3.1-1,5.6v15h-8.3v-31.4h7.8v5.5c1.3-2.1,2.4-3.5,3.3-4.3    c1.5-1.3,3.5-1.9,6-1.9c0.2,0,0.3,0,0.4,0c0.1,0,0.3,0,0.7,0v8.4c-0.5-0.1-1-0.1-1.4-0.1C457.2,175.5,456.9,175.5,456.6,175.5z"></path>
	</g>
</g>
</svg>
