<svg xmlns="http://www.w3.org/2000/svg" version="1.1" xmlns:xlink="http://www.w3.org/1999/xlink"
    xmlns:svgjs="http://svgjs.dev/svgjs" viewBox="0 0 2400 800" opacity="1">
    <defs>
        <linearGradient x1="50%" y1="0%" x2="50%" y2="100%" id="sssurf-grad">
            <stop stop-color="hsla(85, 68%, 51%, 1)" stop-opacity="1" offset="0%"></stop>
            <stop stop-color="hsla(16, 71%, 45%, 1)" stop-opacity="1" offset="100%"></stop>
        </linearGradient>
    </defs>
    <g fill="url(#sssurf-grad)" transform="matrix(1,0,0,1,6.8720703125,311.03060722351074)">
        <path
            d="M-10,10C63.51190476190476,13.75,197.91666666666666,34.666666666666664,342.85714285714283,28C487.79761904761904,21.333333333333336,542.8571428571429,-20.125,685.7142857142857,-22C828.5714285714284,-23.875,885.7142857142856,17.958333333333332,1028.5714285714284,19C1171.4285714285713,20.041666666666668,1228.5714285714284,-19.083333333333332,1371.4285714285713,-17C1514.2857142857142,-14.916666666666666,1571.4285714285713,26.5,1714.2857142857142,29C1857.142857142857,31.5,1914.285714285714,-4.375,2057.142857142857,-5C2199.9999999999995,-5.625,2276.4880952380954,-58.375,2400,26C2523.5119047619046,110.375,3254.1666666666665,217.91666666666669,2650,400C2045.8333333333335,582.0833333333333,156.25,795.8333333333334,-500,900"
            transform="matrix(1,0,0,1,0,25)" opacity="0.05"></path>
        <path
            d="M-10,10C63.51190476190476,13.75,197.91666666666666,34.666666666666664,342.85714285714283,28C487.79761904761904,21.333333333333336,542.8571428571429,-20.125,685.7142857142857,-22C828.5714285714284,-23.875,885.7142857142856,17.958333333333332,1028.5714285714284,19C1171.4285714285713,20.041666666666668,1228.5714285714284,-19.083333333333332,1371.4285714285713,-17C1514.2857142857142,-14.916666666666666,1571.4285714285713,26.5,1714.2857142857142,29C1857.142857142857,31.5,1914.285714285714,-4.375,2057.142857142857,-5C2199.9999999999995,-5.625,2276.4880952380954,-58.375,2400,26C2523.5119047619046,110.375,3254.1666666666665,217.91666666666669,2650,400C2045.8333333333335,582.0833333333333,156.25,795.8333333333334,-500,900"
            transform="matrix(1,0,0,1,0,50)" opacity="0.53"></path>
        <path
            d="M-10,10C63.51190476190476,13.75,197.91666666666666,34.666666666666664,342.85714285714283,28C487.79761904761904,21.333333333333336,542.8571428571429,-20.125,685.7142857142857,-22C828.5714285714284,-23.875,885.7142857142856,17.958333333333332,1028.5714285714284,19C1171.4285714285713,20.041666666666668,1228.5714285714284,-19.083333333333332,1371.4285714285713,-17C1514.2857142857142,-14.916666666666666,1571.4285714285713,26.5,1714.2857142857142,29C1857.142857142857,31.5,1914.285714285714,-4.375,2057.142857142857,-5C2199.9999999999995,-5.625,2276.4880952380954,-58.375,2400,26C2523.5119047619046,110.375,3254.1666666666665,217.91666666666669,2650,400C2045.8333333333335,582.0833333333333,156.25,795.8333333333334,-500,900"
            transform="matrix(1,0,0,1,0,75)" opacity="1.00"></path>
    </g>
</svg>