<svg xmlns="http://www.w3.org/2000/svg" version="1.1" xmlns:xlink="http://www.w3.org/1999/xlink"
	xmlns:svgjs="http://svgjs.dev/svgjs" viewBox="0 0 800 800">
	<defs>
		<linearGradient x1="50%" y1="0%" x2="50%" y2="100%" id="nnneon-grad">
			<stop stop-color="hsl(138, 69%, 58%)" stop-opacity="1" offset="0%"></stop>
			<stop stop-color="hsl(23, 67%, 64%)" stop-opacity="1" offset="100%"></stop>
		</linearGradient>
		<filter id="nnneon-filter" x="-100%" y="-100%" width="400%" height="400%" filterUnits="objectBoundingBox"
			primitiveUnits="userSpaceOnUse" color-interpolation-filters="sRGB">
			<feGaussianBlur stdDeviation="77 32" x="0%" y="0%" width="100%" height="100%" in="SourceGraphic"
				edgeMode="none" result="blur"></feGaussianBlur>
		</filter>
		<filter id="nnneon-filter2" x="-100%" y="-100%" width="400%" height="400%" filterUnits="objectBoundingBox"
			primitiveUnits="userSpaceOnUse" color-interpolation-filters="sRGB">
		</filter>
	</defs>
	<g stroke-width="12" stroke="url(#nnneon-grad)" fill="none">
		<path
			d="M383.2953555035904 159.07393840973214C393.63218951796864 153.1070393956146 406.36781048203136 153.1070393956146 416.7046444964096 159.0756088741818L600.2953693697502 265.07158959724995C610.6322033841286 271.0384886113675 617.00001386616 282.06856537234677 617.00001386616 294.0040338650315V505.9959953111677C617.00001386616 517.9314638038526 610.6322033841286 528.9615405648319 600.2953693697502 534.930110043399L416.7046444964096 640.926090766467C406.36781048203136 646.8929897805847 393.63218951796864 646.8929897805847 383.2953555035904 640.9244203020176L199.70463063024965 534.9284395789493C189.36779661587138 528.9615405648319 182.99998613384003 517.9314638038526 182.99998613384003 505.9959953111677V294.0040338650315C182.99998613384003 282.06856537234677 189.36779661587138 271.0384886113675 199.70463063024965 265.06991913280035L383.2953555035904 159.07393840973214Z "
			filter="url(#nnneon-filter)"></path>
		<path
			d="M605.2953555035904 159.07393840973214C615.6321895179686 153.1070393956146 628.3678104820314 153.1070393956146 638.7046444964096 159.0756088741818L822.2953693697502 265.07158959724995C832.6322033841286 271.0384886113675 839.00001386616 282.06856537234677 839.00001386616 294.0040338650315V505.9959953111677C839.00001386616 517.9314638038526 832.6322033841286 528.9615405648319 822.2953693697502 534.930110043399L638.7046444964096 640.926090766467C628.3678104820314 646.8929897805847 615.6321895179686 646.8929897805847 605.2953555035904 640.9244203020176L421.70463063024965 534.9284395789493C411.3677966158714 528.9615405648319 404.99998613384 517.9314638038526 404.99998613384 505.9959953111677V294.0040338650315C404.99998613384 282.06856537234677 411.3677966158714 271.0384886113675 421.70463063024965 265.06991913280035L605.2953555035904 159.07393840973214Z "
			filter="url(#nnneon-filter2)" opacity="1"></path>
		<path
			d="M161.29535550359037 159.07393840973214C171.63218951796864 153.1070393956146 184.36781048203136 153.1070393956146 194.70464449640963 159.0756088741818L378.29536936975023 265.07158959724995C388.6322033841286 271.0384886113675 395.00001386616 282.06856537234677 395.00001386616 294.0040338650315V505.9959953111677C395.00001386616 517.9314638038526 388.6322033841286 528.9615405648319 378.29536936975023 534.930110043399L194.70464449640963 640.926090766467C184.36781048203136 646.8929897805847 171.63218951796864 646.8929897805847 161.29535550359037 640.9244203020176L-22.295369369750347 534.9284395789493C-32.632203384128616 528.9615405648319 -39.000013866159975 517.9314638038526 -39.000013866159975 505.9959953111677V294.0040338650315C-39.000013866159975 282.06856537234677 -32.632203384128616 271.0384886113675 -22.295369369750347 265.06991913280035L161.29535550359037 159.07393840973214Z "
			filter="url(#nnneon-filter2)" opacity="1"></path>
		<path
			d="M383.2953555035904 159.07393840973214C393.63218951796864 153.1070393956146 406.36781048203136 153.1070393956146 416.7046444964096 159.0756088741818L600.2953693697502 265.07158959724995C610.6322033841286 271.0384886113675 617.00001386616 282.06856537234677 617.00001386616 294.0040338650315V505.9959953111677C617.00001386616 517.9314638038526 610.6322033841286 528.9615405648319 600.2953693697502 534.930110043399L416.7046444964096 640.926090766467C406.36781048203136 646.8929897805847 393.63218951796864 646.8929897805847 383.2953555035904 640.9244203020176L199.70463063024965 534.9284395789493C189.36779661587138 528.9615405648319 182.99998613384003 517.9314638038526 182.99998613384003 505.9959953111677V294.0040338650315C182.99998613384003 282.06856537234677 189.36779661587138 271.0384886113675 199.70463063024965 265.06991913280035L383.2953555035904 159.07393840973214Z ">
		</path>
	</g>
</svg>