<svg width="1440" height="779" viewBox="0 0 1440 779" fill="none" xmlns="http://www.w3.org/2000/svg">
    <g clip-path="url(#clip0_2736_17618)">
        <path
            d="M1233.33 868.021C1257.98 849.153 1268.92 818.634 1268.46 790.35C1268 762.066 1257.65 735.375 1246.52 709.641C1231.81 675.618 1214.93 641.459 1186.51 616.199C1146.9 580.994 1089.63 567.164 1033.72 559.077C934.442 544.722 832.182 544.707 730.336 550.439C621.162 556.583 507.367 568.776 408.064 533.857C318.95 502.523 274.154 442.799 230.743 369.992C190.255 302.087 166.431 222.743 103.935 167.851C21.9328 95.8228 -110.292 82.176 -224.458 116.858C-338.625 151.539 -435.622 228.469 -509.612 316.889"
            stroke="#82b33c" stroke-opacity="0.4" stroke-width="0.864782" stroke-miterlimit="10" />
        <path
            d="M1246.67 861.011C1268.64 844.888 1275.86 816.842 1272.98 789.549C1270.1 762.334 1258.8 735.936 1246.24 711.074C1229.72 678.343 1211.62 644.905 1181.87 620.304C1139.58 585.335 1080.05 570.121 1022.5 560.493C924.432 544.079 823.316 542.635 722.968 546.635C616.225 550.891 504.911 562.139 407.551 527.078C318.739 495.097 272.14 436.304 226.865 365.989C184.414 300.423 157.849 225.011 94.8133 173.044C12.38 105.085 -117.785 93.2603 -231.269 127.024C-345.175 160.81 -441.947 233.264 -516.917 318.74"
            stroke="#82b33c" stroke-opacity="0.4" stroke-width="0.864782" stroke-miterlimit="10" />
        <path
            d="M1260.01 854.007C1279.3 840.638 1282.83 815.155 1277.49 788.775C1272.22 762.703 1259.95 736.531 1245.96 712.541C1227.63 681.117 1208.26 648.4 1177.21 624.444C1132.2 589.722 1070.48 573.144 1011.27 561.927C914.408 543.575 814.458 540.575 715.589 542.83C611.291 545.21 502.449 555.474 407.036 520.283C318.532 487.637 270.296 429.675 222.977 361.971C178.73 298.659 149.287 227.298 85.6806 178.245C2.85708 114.377 -125.287 104.369 -238.088 137.218C-351.737 170.106 -448.283 238.067 -524.235 320.599"
            stroke="#82b33c" stroke-opacity="0.4" stroke-width="0.864782" stroke-miterlimit="10" />
        <path
            d="M1273.37 846.87C1289.97 836.267 1289.84 813.442 1282.01 787.893C1274.39 763.033 1261.12 737.039 1245.68 713.918C1225.57 683.817 1204.88 651.835 1172.56 628.513C1124.79 594.049 1060.94 576.132 1000.04 563.286C904.397 543.106 805.637 538.438 708.239 538.934C606.412 539.45 500.035 548.696 406.57 513.392C318.375 480.079 268.41 423.018 219.148 357.882C173.013 296.879 140.817 229.555 76.6051 183.427C-6.56559 123.674 -132.722 115.491 -244.832 147.411C-358.213 179.392 -454.528 242.842 -531.459 322.405"
            stroke="#82b33c" stroke-opacity="0.4" stroke-width="0.864782" stroke-miterlimit="10" />
        <path
            d="M1286.76 838.875C1300.67 831.055 1296.94 810.985 1286.56 786.229C1276.66 762.655 1262.34 736.826 1245.42 714.591C1223.56 685.853 1201.5 654.65 1167.95 631.976C1117.4 597.821 1051.47 578.601 988.904 564.099C894.487 542.215 796.976 535.787 701.051 534.498C601.743 533.165 497.849 541.341 406.351 505.976C318.489 472.019 266.796 415.922 215.613 353.437C167.591 294.808 132.689 231.616 67.8587 188.45C-15.5896 132.888 -139.77 126.534 -251.16 157.494C-364.247 188.543 -460.305 247.402 -538.196 323.913"
            stroke="#82b33c" stroke-opacity="0.4" stroke-width="0.864782" stroke-miterlimit="10" />
        <path
            d="M1300.15 830.863C1311.37 825.834 1304.12 808.567 1291.1 784.562C1279.03 762.308 1263.57 736.613 1245.17 715.262C1221.58 687.888 1198.11 657.481 1163.34 635.437C1109.98 601.609 1042.01 581.104 977.761 564.907C884.561 541.414 788.335 533.137 693.861 530.054C597.084 526.896 495.666 533.957 406.132 498.551C318.602 463.94 265.177 408.82 212.078 348.988C162.159 292.739 124.6 233.687 59.1132 193.488C-24.5656 142.121 -146.762 137.822 -257.487 167.604C-370.223 197.925 -466.079 251.969 -544.928 325.418"
            stroke="#82b33c" stroke-opacity="0.4" stroke-width="0.864782" stroke-miterlimit="10" />
        <path
            d="M1313.54 822.834C1322.06 820.597 1311.39 806.168 1295.63 782.883C1281.48 761.959 1264.81 736.394 1244.9 715.931C1219.61 689.924 1194.68 660.328 1158.71 638.904C1102.51 605.426 1032.54 583.648 966.603 565.722C874.602 540.708 779.701 530.508 686.659 525.61C592.433 520.648 493.485 526.555 405.906 491.123C318.713 455.846 263.538 401.712 208.536 344.538C156.713 290.67 116.547 235.772 50.3568 198.54C-33.4994 151.368 -153.809 148.95 -263.82 177.731C-376.249 207.144 -471.854 256.545 -551.662 326.932"
            stroke="#82b33c" stroke-opacity="0.4" stroke-width="0.864782" stroke-miterlimit="10" />
        <path
            d="M1326.92 814.789C1332.74 815.346 1318.74 803.763 1300.16 781.202C1284.02 761.595 1266.05 736.173 1244.63 716.6C1217.65 691.959 1191.22 663.197 1154.08 642.374C1095.01 609.266 1023.05 586.232 955.43 566.532C864.618 540.078 771.074 527.888 679.445 521.154C587.782 514.414 491.296 519.121 405.673 483.675C318.823 447.721 261.887 394.591 204.987 340.08C151.253 288.601 108.527 237.859 41.5924 203.6C-42.381 160.619 -160.866 160.094 -270.159 187.878C-382.285 216.383 -477.641 261.139 -558.407 328.452"
            stroke="#82b33c" stroke-opacity="0.4" stroke-width="0.864782" stroke-miterlimit="10" />
        <path
            d="M1340.29 806.728C1343.42 810.084 1326.17 801.324 1304.68 779.511C1286.63 761.197 1267.31 735.936 1244.34 717.261C1215.71 693.978 1187.74 666.075 1149.44 645.841C1087.49 613.124 1013.56 588.851 944.257 567.34C854.619 539.519 762.464 525.284 672.241 516.687C583.156 508.201 489.128 511.657 405.458 476.219C318.95 439.578 260.242 387.463 201.458 335.617C145.799 286.531 100.574 239.945 32.8524 208.668C-51.1827 169.861 -167.899 171.251 -276.469 198.037C-388.306 225.631 -483.404 265.74 -565.128 329.975"
            stroke="#82b33c" stroke-opacity="0.4" stroke-width="0.864782" stroke-miterlimit="10" />
        <path
            d="M1353.65 798.653C1354.09 804.816 1333.66 798.833 1309.18 777.819C1289.3 760.757 1268.57 735.696 1244.04 717.929C1213.76 695.993 1184.23 668.982 1144.77 649.324C1079.92 617.02 1004.03 591.523 933.054 568.161C844.567 539.036 753.846 522.713 665.004 512.231C578.513 502.026 486.933 504.178 405.211 468.764C319.052 431.426 258.557 380.346 197.895 331.167C140.308 284.477 92.6337 242.044 24.074 213.769C-59.96 179.113 -174.967 182.445 -282.82 208.237C-394.342 234.906 -489.186 270.359 -571.864 331.515"
            stroke="#82b33c" stroke-opacity="0.4" stroke-width="0.864782" stroke-miterlimit="10" />
        <path
            d="M1367.01 790.564C1364.74 799.534 1341.21 796.277 1313.67 776.118C1292.01 760.261 1269.83 735.441 1243.73 718.594C1211.83 697.998 1180.7 671.901 1140.1 652.807C1072.33 620.937 994.485 594.234 921.848 568.982C834.494 538.613 745.246 520.164 657.768 507.769C573.88 495.884 484.751 496.68 404.969 461.306C319.158 423.261 256.869 373.231 194.336 326.717C134.807 282.437 84.742 244.132 15.2992 218.885C-68.6733 188.354 -182.028 193.663 -289.159 218.457C-400.377 244.198 -494.96 274.995 -578.599 333.06"
            stroke="#82b33c" stroke-opacity="0.4" stroke-width="0.864782" stroke-miterlimit="10" />
        <path
            d="M1380.34 782.463C1375.38 794.241 1348.79 793.651 1318.14 774.416C1294.73 759.72 1271.08 735.176 1243.4 719.259C1209.88 699.99 1177.14 674.838 1135.4 656.3C1064.7 624.889 984.908 596.997 910.618 569.816C824.375 538.258 736.635 517.657 650.512 503.317C569.237 489.784 482.56 489.17 404.711 453.856C319.255 415.091 255.155 366.133 190.765 322.289C129.289 280.427 76.889 246.231 6.51685 224.041C-77.3362 197.601 -189.097 204.924 -295.5 228.723C-406.415 253.534 -500.735 279.668 -585.332 334.64"
            stroke="#82b33c" stroke-opacity="0.4" stroke-width="0.864782" stroke-miterlimit="10" />
        <path
            d="M1393.66 774.354C1385.99 788.943 1356.37 790.959 1322.59 772.71C1297.45 759.131 1272.31 734.9 1243.04 719.929C1207.93 701.974 1173.55 677.801 1130.69 659.8C1057.03 628.872 975.289 599.807 899.369 570.656C814.222 537.959 728.021 515.189 643.245 498.87C564.586 483.726 480.368 481.647 404.447 446.407C319.355 406.906 253.431 359.047 187.193 317.869C123.758 278.434 69.0769 248.312 -2.26806 229.214C-85.9467 206.818 -196.17 216.209 -301.842 239.016C-412.455 262.892 -506.512 284.361 -592.066 336.234"
            stroke="#82b33c" stroke-opacity="0.4" stroke-width="0.864782" stroke-miterlimit="10" />
        <path
            d="M1406.93 766.245C1396.56 783.647 1363.93 788.207 1327 771.015C1300.14 758.511 1273.51 734.624 1242.64 720.619C1205.95 703.965 1169.91 680.796 1125.93 663.331C1049.33 632.909 965.618 602.692 888.083 571.533C804.01 537.749 719.384 512.793 635.946 494.457C559.913 477.752 478.159 474.144 404.159 438.998C319.436 398.755 251.672 352.017 183.598 313.508C118.199 276.514 61.2831 250.427 -11.0742 234.469C-94.5252 216.066 -203.256 227.576 -308.195 249.39C-418.505 272.321 -512.29 289.12 -598.797 337.883"
            stroke="#82b33c" stroke-opacity="0.4" stroke-width="0.864782" stroke-miterlimit="10" />
        <path
            d="M1420.14 758.146C1407.08 778.364 1371.43 785.405 1331.35 769.329C1302.77 757.867 1274.66 734.353 1242.19 721.321C1203.92 705.96 1166.22 683.823 1121.13 666.883C1041.56 636.99 955.882 605.642 876.759 572.443C793.739 537.611 710.716 510.474 628.615 490.088C555.209 471.861 475.931 466.669 403.848 431.634C319.507 390.643 249.892 345.055 179.988 309.209C112.62 274.669 53.5127 252.566 -19.8851 239.805C-103.068 225.341 -210.344 239.027 -314.545 259.85C-424.543 281.829 -518.065 293.961 -605.519 339.606"
            stroke="#82b33c" stroke-opacity="0.4" stroke-width="0.864782" stroke-miterlimit="10" />
        <path
            d="M1433.28 750.066C1417.52 773.094 1378.86 782.569 1335.63 767.667C1305.32 757.218 1275.74 734.099 1241.67 722.06C1201.82 707.978 1162.45 686.906 1116.25 670.481C1033.72 641.145 946.055 608.683 865.368 573.411C783.383 537.574 701.988 508.266 621.226 485.788C550.444 466.088 473.657 459.25 403.485 424.352C319.533 382.599 248.059 338.192 176.333 305.016C106.994 272.944 45.7312 254.772 -28.739 245.26C-111.617 234.669 -217.467 250.596 -320.926 270.425C-430.617 291.445 -523.858 298.907 -612.266 341.426"
            stroke="#82b33c" stroke-opacity="0.4" stroke-width="0.864782" stroke-miterlimit="10" />
        <path
            d="M1446.35 742.013C1427.89 767.847 1386.22 779.714 1339.84 766.026C1307.79 756.564 1276.77 733.864 1241.09 722.828C1199.66 710.016 1158.63 690.031 1111.32 674.12C1025.83 645.362 936.161 611.817 853.931 574.44C772.962 537.635 693.215 506.174 613.801 481.563C545.64 460.437 471.357 451.895 403.094 417.155C319.547 374.633 246.198 331.438 172.657 300.927C101.346 271.335 37.9512 257.036 -37.6053 250.825C-120.154 244.046 -224.596 262.275 -327.311 281.11C-436.682 301.162 -529.647 303.954 -618.995 343.339"
            stroke="#82b33c" stroke-opacity="0.4" stroke-width="0.864782" stroke-miterlimit="10" />
        <path
            d="M1459.36 733.988C1438.2 762.625 1393.49 776.842 1343.99 764.411C1310.19 755.923 1277.73 733.643 1240.45 723.624C1197.45 712.07 1154.75 693.197 1106.34 677.789C1017.87 649.629 926.185 615.024 842.448 575.511C762.478 537.772 684.39 504.183 606.342 477.391C540.79 454.891 469.043 444.585 402.677 410.016C319.545 366.716 244.312 324.767 168.965 296.908C95.6758 269.811 30.1736 259.305 -46.479 256.471C-128.68 253.431 -231.727 274.023 -333.693 291.866C-442.753 310.952 -535.433 309.077 -625.725 345.326"
            stroke="#82b33c" stroke-opacity="0.4" stroke-width="0.864782" stroke-miterlimit="10" />
        <path
            d="M1472.32 725.991C1448.46 757.429 1400.71 773.961 1348.1 762.815C1312.53 755.279 1278.65 733.433 1239.77 724.445C1195.19 714.141 1150.82 696.4 1101.31 681.49C1009.88 653.951 916.147 618.309 830.932 576.624C751.94 537.984 675.513 502.294 598.849 473.278C535.893 449.449 466.705 437.319 402.233 402.949C319.527 358.854 242.4 318.181 165.245 292.974C89.98 268.383 22.3697 261.601 -55.3791 262.201C-137.235 262.833 -238.885 285.849 -340.095 302.7C-448.837 320.807 -541.231 314.28 -632.466 347.385"
            stroke="#82b33c" stroke-opacity="0.4" stroke-width="0.864782" stroke-miterlimit="10" />
        <path
            d="M1485.24 718.021C1458.68 752.254 1407.87 771.077 1352.17 761.242C1314.82 754.649 1279.53 733.244 1239.05 725.291C1192.9 716.226 1146.87 699.636 1096.26 685.215C1001.85 658.315 906.057 621.657 819.397 577.774C741.363 538.259 666.602 500.506 591.342 469.212C530.958 444.106 464.363 430.096 401.774 395.932C319.509 351.032 240.477 311.663 161.52 289.095C84.2788 267.016 14.5562 263.882 -64.2785 267.981C-145.794 272.221 -246.038 297.715 -346.493 313.581C-454.913 330.705 -547.023 319.528 -639.195 349.495"
            stroke="#82b33c" stroke-opacity="0.4" stroke-width="0.864782" stroke-miterlimit="10" />
        <path
            d="M1498.12 710.076C1468.87 747.097 1414.99 768.188 1356.21 759.683C1317.06 754.019 1280.39 733.055 1238.3 726.15C1190.58 718.316 1142.89 702.888 1091.18 688.956C993.805 662.709 895.916 625.06 807.837 578.945C730.738 538.579 657.631 498.798 583.81 465.179C525.978 438.839 462.006 422.891 401.291 388.959C319.483 343.236 238.528 305.201 157.774 285.266C78.5581 265.709 6.7093 266.146 -73.1899 273.803C-154.385 281.586 -253.198 309.613 -352.902 324.493C-461.003 340.632 -552.821 324.812 -645.932 351.635"
            stroke="#82b33c" stroke-opacity="0.4" stroke-width="0.864782" stroke-miterlimit="10" />
        <path
            d="M1510.98 702.153C1479.03 741.959 1422.05 765.301 1360.23 758.141C1319.27 753.398 1281.21 732.882 1237.54 727.023C1188.23 720.412 1138.89 706.162 1086.08 692.707C985.735 667.129 885.723 628.514 796.262 580.139C720.078 538.943 648.606 497.175 576.271 461.179C520.958 433.65 459.654 415.715 400.8 382.025C319.466 335.465 236.581 298.788 154.026 281.476C72.8354 264.451 -1.16749 268.384 -82.106 279.657C-163.007 290.928 -260.365 321.53 -359.31 335.435C-467.088 350.581 -558.615 330.13 -652.664 353.817"
            stroke="#82b33c" stroke-opacity="0.4" stroke-width="0.864782" stroke-miterlimit="10" />
        <path
            d="M1523.81 694.252C1489.17 736.839 1429.09 762.417 1364.22 756.61C1321.44 752.782 1282.01 732.709 1236.75 727.909C1185.86 722.512 1134.87 709.455 1080.97 696.469C977.657 671.579 875.485 632.018 784.677 581.347C709.389 539.338 639.525 495.63 568.72 457.196C515.892 428.521 457.301 408.546 400.3 375.11C319.454 327.69 234.62 292.408 150.268 277.708C67.1092 263.215 -9.08614 270.581 -91.0237 285.525C-171.666 300.232 -267.53 333.451 -365.717 346.381C-473.173 360.53 -564.412 335.461 -659.391 356.011"
            stroke="#82b33c" stroke-opacity="0.4" stroke-width="0.864782" stroke-miterlimit="10" />
        <path
            d="M1536.63 686.372C1499.29 731.74 1436.09 759.537 1368.2 755.094C1323.58 752.173 1282.79 732.546 1235.95 728.808C1183.46 724.62 1130.83 712.764 1075.84 700.245C969.554 676.05 865.199 635.567 773.078 582.574C698.662 539.765 630.368 494.168 561.152 453.245C510.77 423.458 454.945 401.401 399.781 368.235C319.448 319.934 232.651 286.072 146.496 273.975C61.3687 262.025 -17.0599 272.756 -99.9572 291.418C-180.384 309.523 -274.708 345.386 -372.14 357.348C-479.274 370.501 -570.219 340.817 -666.137 358.234"
            stroke="#82b33c" stroke-opacity="0.4" stroke-width="0.864782" stroke-miterlimit="10" />
        <path
            d="M1549.43 678.511C1509.4 726.653 1443.06 756.666 1372.17 753.587C1325.7 751.573 1283.56 732.385 1235.14 729.711C1181.06 726.727 1126.8 716.078 1070.71 704.02C961.462 680.534 854.88 639.152 761.483 583.802C687.921 540.21 621.15 492.762 553.59 449.303C505.606 418.438 452.604 394.255 399.267 361.37C319.466 312.165 230.689 279.754 142.73 270.254C55.639 260.844 -25.0693 274.898 -108.881 297.308C-189.141 318.77 -281.879 357.304 -378.552 368.302C-485.359 380.452 -576.016 346.165 -672.863 360.45"
            stroke="#82b33c" stroke-opacity="0.4" stroke-width="0.864782" stroke-miterlimit="10" />
        <path
            d="M1562.21 670.67C1519.49 721.582 1450 753.8 1376.12 752.096C1327.8 750.979 1284.3 732.236 1234.32 730.63C1178.63 728.841 1122.75 719.408 1065.56 707.811C953.349 685.046 844.51 642.788 749.874 585.054C677.148 540.689 611.841 491.438 546.018 445.394C500.391 413.475 450.261 387.136 398.741 354.547C319.496 304.416 228.717 273.489 138.954 266.573C49.9056 259.712 -33.1417 277.032 -117.809 303.232C-197.954 328.028 -289.052 369.246 -384.967 379.287C-491.451 390.43 -581.814 351.551 -679.598 362.71"
            stroke="#82b33c" stroke-opacity="0.4" stroke-width="0.864782" stroke-miterlimit="10" />
        <path
            d="M1574.78 662.965C1529.37 716.623 1456.74 751.029 1379.88 750.697C1329.7 750.48 1284.87 732.181 1233.32 731.647C1176.04 731.052 1118.54 722.843 1060.26 711.699C945.093 689.675 833.972 646.577 738.137 586.455C666.231 541.344 602.33 490.353 538.33 441.692C495.006 408.751 447.828 380.239 398.111 347.968C319.454 296.905 226.665 267.499 135.096 263.159C44.1011 258.851 -41.3292 279.399 -126.798 309.394C-206.873 337.495 -296.272 381.392 -391.42 390.471C-497.568 400.601 -587.632 357.159 -686.339 365.189"
            stroke="#82b33c" stroke-opacity="0.4" stroke-width="0.864782" stroke-miterlimit="10" />
        <path
            d="M1587.35 655.276C1539.26 711.677 1463.47 748.267 1383.65 749.309C1331.6 749.989 1285.43 732.128 1232.33 732.664C1173.44 733.259 1114.34 726.281 1054.97 715.584C936.851 694.308 823.406 650.388 726.415 587.85C655.312 542.002 592.744 489.302 530.657 437.985C489.583 404.036 445.416 373.331 397.493 341.383C319.457 289.359 224.629 261.501 131.253 259.736C38.32 257.977 -49.554 281.72 -135.772 315.53C-215.832 346.924 -303.478 393.495 -397.859 401.622C-503.669 410.733 -593.439 362.739 -693.066 367.647"
            stroke="#82b33c" stroke-opacity="0.4" stroke-width="0.864782" stroke-miterlimit="10" />
        <path
            d="M1599.93 647.599C1549.15 706.744 1470.19 745.507 1387.43 747.921C1333.5 749.494 1286.01 732.076 1231.35 733.682C1170.85 735.463 1110.15 729.714 1049.68 719.466C928.616 698.946 812.805 654.23 714.696 589.242C644.371 542.661 583.062 488.288 522.983 434.283C484.106 399.334 443.015 366.418 396.873 334.81C319.485 281.795 222.596 255.52 127.41 256.312C32.5426 257.103 -57.8273 284.022 -144.738 321.649C-224.834 356.327 -310.678 405.41 -404.293 412.753C-509.773 420.666 -599.24 368.307 -699.795 370.101"
            stroke="#82b33c" stroke-opacity="0.4" stroke-width="0.864782" stroke-miterlimit="10" />
        <path
            d="M1612.5 639.934C1559.04 701.818 1476.91 742.754 1391.2 746.542C1335.39 749.009 1286.57 732.023 1230.36 734.703C1168.25 737.662 1105.95 733.152 1044.39 723.343C920.383 703.585 802.17 658.092 702.983 590.629C633.42 543.316 573.278 487.296 515.312 430.581C478.567 394.63 440.631 359.5 396.251 328.233C319.549 274.196 220.557 249.694 123.563 252.881C26.7564 256.383 -66.1595 286.3 -153.712 327.748C-233.894 365.706 -317.882 417.501 -410.737 423.856C-515.877 430.802 -605.055 373.855 -706.53 372.542"
            stroke="#82b33c" stroke-opacity="0.4" stroke-width="0.864782" stroke-miterlimit="10" />
        <path
            d="M1625.07 632.282C1568.93 696.9 1483.61 740.009 1394.97 745.163C1337.27 748.518 1287.14 731.883 1229.38 735.718C1165.66 739.758 1101.75 736.686 1039.11 727.212C912.109 708.435 791.507 661.973 691.277 592.009C622.459 543.972 563.401 486.315 507.65 426.875C472.986 389.914 438.27 352.575 395.631 321.659C319.652 266.568 218.538 243.63 119.721 249.442C20.9973 255.413 -74.5303 288.56 -162.68 333.826C-242.997 375.07 -325.082 429.567 -417.182 434.934C-521.981 440.911 -610.869 379.39 -713.267 374.97"
            stroke="#82b33c" stroke-opacity="0.4" stroke-width="0.864782" stroke-miterlimit="10" />
        <path
            d="M1637.64 624.641C1578.82 691.991 1490.31 737.27 1398.75 743.794C1339.16 748.039 1287.71 731.923 1228.41 736.741C1163.07 742.052 1097.6 740.023 1033.83 731.081C903.95 712.871 780.813 665.878 679.579 593.393C611.483 544.633 553.424 485.351 499.992 423.173C467.345 385.187 435.927 345.648 395.013 315.09C319.803 258.908 216.525 237.569 115.88 246.005C15.2346 254.44 -82.9412 290.816 -171.643 339.894C-252.14 384.428 -332.276 441.612 -423.618 445.995C-528.082 451.006 -616.673 384.912 -719.998 377.388"
            stroke="#82b33c" stroke-opacity="0.4" stroke-width="0.864782" stroke-miterlimit="10" />
        <path
            d="M1165.26 763.495C1195.57 665.483 1187.32 560.313 1142.37 471.941C1129.58 446.798 1113.13 422.214 1087.53 407.455C1013.56 364.813 908.078 408.161 828.938 429.173C733.421 454.536 638.266 482.029 541.229 500.36C486.75 510.652 424.647 516.423 384.247 485.137C343.337 453.453 341.002 397.016 335.057 347.142C328.129 289.027 311.948 231.265 277.056 183.83C242.165 136.399 186.668 100.205 122.603 94.9123C72.4363 90.7649 21.2462 105.344 -26.8684 123.257C-153.293 170.32 -270.164 242.055 -366.767 331.876"
            stroke="#82b33c" stroke-opacity="0.4" stroke-width="0.864782" stroke-miterlimit="10" />
        <path
            d="M1169.5 760.216C1198.85 665.256 1187.63 564.635 1141.31 475.784C1128.38 450.977 1112.1 426.641 1086.93 411.881C1014.08 369.098 910.934 409.564 832.497 429.288C748.867 450.317 665.189 473.678 579.373 491.052C568.816 493.206 558.242 495.269 547.645 497.225C493.669 507.193 432.317 512.839 391.988 482.605C351.12 451.989 347.609 397.421 340.633 349.204C332.422 293.026 315.292 237.186 280.125 191.281C244.813 145.384 189.633 110.289 126.279 104.961C83.2284 101.333 39.4992 111.226 -2.31878 124.91C-8.79321 127.024 -15.2034 129.268 -21.5839 131.494C-148.184 175.668 -261.745 240.257 -355.265 327.283"
            stroke="#82b33c" stroke-opacity="0.4" stroke-width="0.864782" stroke-miterlimit="10" />
        <path
            d="M1173.75 756.942C1202.12 665.041 1187.96 568.969 1140.25 479.64C1127.18 455.163 1111.08 431.083 1086.33 416.316C1014.59 373.39 913.793 410.974 836.055 429.406C753.787 448.91 671.122 471.368 585.488 488.125C575.032 490.205 564.557 492.199 554.06 494.094C500.586 503.738 439.981 509.258 399.724 480.077C358.892 450.533 354.206 397.832 346.197 351.276C336.698 297.041 318.626 243.118 283.174 198.745C247.443 154.38 192.582 120.389 129.935 115.029C87.28 111.368 44.0362 120.693 2.72211 133.564C-3.67752 135.551 -10.0062 137.694 -16.3204 139.748C-143.152 181.019 -253.344 238.463 -343.781 322.685"
            stroke="#82b33c" stroke-opacity="0.4" stroke-width="0.864782" stroke-miterlimit="10" />
        <path
            d="M1177.99 753.678C1205.4 664.834 1188.3 573.32 1139.19 483.506C1125.99 459.356 1110.05 435.529 1085.73 420.76C1015.11 377.688 916.666 412.394 839.617 429.52C758.724 447.503 677.03 468.853 591.607 485.192C581.247 487.177 570.875 489.124 560.48 490.954C507.509 500.273 447.655 505.668 407.468 477.545C366.677 449.072 360.914 398.221 351.767 353.349C341.103 301.027 322.098 248.962 286.232 206.218C250.21 163.292 195.535 130.497 133.602 125.107C91.3442 121.413 48.5884 130.174 7.77172 142.225C1.44287 144.083 -4.80016 146.127 -11.044 148.009C-138.157 186.359 -244.931 236.652 -332.277 318.075"
            stroke="#82b33c" stroke-opacity="0.4" stroke-width="0.864782" stroke-miterlimit="10" />
        <path
            d="M1182.23 750.418C1208.67 664.637 1188.66 577.683 1138.12 487.377C1124.79 463.551 1109.02 439.98 1085.12 425.207C1015.62 381.983 919.547 413.808 843.174 429.627C763.665 446.093 682.953 466.46 597.721 482.247C587.456 484.149 577.184 486.035 566.89 487.8C514.421 496.799 455.316 502.063 415.2 474.995C374.446 447.593 367.536 398.604 357.324 355.405C345.41 305.016 325.463 254.856 289.278 213.675C252.875 172.252 198.479 140.595 137.254 135.168C95.3924 131.44 53.1206 139.635 12.8096 150.867C6.5556 152.597 0.391709 154.535 -5.78484 156.253C-133.233 191.662 -236.536 234.807 -320.792 313.423"
            stroke="#82b33c" stroke-opacity="0.4" stroke-width="0.864782" stroke-miterlimit="10" />
        <path
            d="M1186.49 747.003C1211.96 664.304 1189.04 581.934 1137.07 491.155C1123.62 467.66 1108 444.352 1084.53 429.574C1016.16 386.208 922.469 415.147 846.766 429.645C768.655 444.604 688.929 463.974 603.887 479.194C593.723 481.013 583.551 482.838 573.359 484.538C521.396 493.209 463.046 498.348 423.002 472.346C382.288 446.022 374.232 398.908 362.952 357.397C349.789 308.949 328.891 260.709 292.39 221.107C255.604 181.198 201.49 150.685 140.98 145.227C99.5191 141.462 57.7341 149.089 17.9258 159.501C11.7429 161.1 5.65698 162.936 -0.444722 164.483C-128.271 196.913 -228.044 232.906 -309.203 308.694"
            stroke="#82b33c" stroke-opacity="0.4" stroke-width="0.864782" stroke-miterlimit="10" />
        <path
            d="M1190.75 743.56C1215.25 663.95 1189.43 586.171 1136.01 494.925C1122.45 471.754 1106.98 448.712 1083.94 433.933C1016.69 390.425 925.393 416.477 850.357 429.642C773.654 443.097 694.902 461.458 610.053 476.117C599.987 477.857 589.92 479.613 579.827 481.255C528.37 489.598 470.776 494.61 430.802 469.672C390.13 444.433 380.924 399.193 368.577 359.374C354.16 312.871 332.312 266.558 295.502 228.538C258.328 190.143 204.508 160.776 144.707 155.29C103.65 151.493 62.3521 158.55 23.0485 168.135C16.941 169.606 10.9322 171.331 4.90628 172.714C-123.342 202.138 -219.535 230.989 -297.599 303.943"
            stroke="#82b33c" stroke-opacity="0.4" stroke-width="0.864782" stroke-miterlimit="10" />
        <path
            d="M1194.95 740.118C1218.47 663.617 1189.78 590.439 1134.9 498.74C1121.23 475.9 1105.87 453.174 1083.29 438.347C1017.05 394.836 928.284 417.867 853.907 429.686C778.629 441.648 700.848 458.987 616.189 473.074C606.225 474.731 596.258 476.425 586.268 478.001C535.319 486.019 478.481 490.898 438.586 467.032C397.956 442.878 387.6 399.523 374.194 361.407C358.522 316.859 335.723 272.48 298.603 236.052C261.038 199.183 207.517 170.97 148.435 165.449C107.78 161.619 66.9864 168.177 28.1758 176.857C22.1408 178.206 16.2069 179.814 10.2571 181.034C-118.455 207.411 -211.018 229.125 -285.979 299.234"
            stroke="#82b33c" stroke-opacity="0.4" stroke-width="0.864782" stroke-miterlimit="10" />
        <path
            d="M1199.03 736.676C1221.58 663.307 1190.03 594.757 1133.67 502.634C1119.89 480.124 1104.67 457.687 1082.53 442.854C1017.41 399.231 931.085 419.36 857.362 429.821C783.518 440.298 706.709 456.601 622.251 470.1C612.386 471.677 602.523 473.305 592.633 474.814C542.197 482.499 486.122 487.249 446.3 464.464C405.719 441.406 394.205 399.948 379.738 363.552C362.81 320.97 339.06 278.553 301.641 243.72C263.687 208.39 210.466 181.339 152.106 175.79C111.856 171.928 71.5578 177.916 33.2585 185.759C27.298 186.981 21.4355 188.471 15.5704 189.529C-113.644 212.806 -202.522 227.41 -274.372 294.645"
            stroke="#82b33c" stroke-opacity="0.4" stroke-width="0.864782" stroke-miterlimit="10" />
        <path
            d="M1203.11 733.233C1224.68 663.003 1190.31 599.077 1132.44 506.535C1118.57 484.357 1103.48 462.207 1081.77 447.372C1017.78 403.637 933.899 420.866 860.822 429.956C788.426 438.958 712.581 454.21 628.316 467.127C618.552 468.623 608.793 470.185 599.006 471.628C549.087 478.981 493.768 483.6 454.029 461.896C413.49 439.937 400.823 400.376 385.295 365.703C367.107 325.088 342.404 284.63 304.691 251.404C266.338 217.616 213.43 191.728 155.791 186.145C115.947 182.247 76.1406 187.672 38.3544 194.674C32.4659 195.764 26.6788 197.136 20.8928 198.035C-108.857 218.169 -194.014 225.687 -262.75 290.051"
            stroke="#82b33c" stroke-opacity="0.4" stroke-width="0.864782" stroke-miterlimit="10" />
        <path
            d="M1207.19 729.795C1227.78 662.705 1190.58 603.406 1131.19 510.452C1117.23 488.603 1102.27 466.739 1081 451.906C1018.12 408.053 936.71 422.399 864.266 430.099C793.325 437.644 718.435 451.831 634.37 464.154C624.71 465.571 615.046 467.064 605.365 468.445C555.958 475.47 501.402 479.959 461.738 459.335C421.248 438.475 407.42 400.81 390.834 367.862C371.381 329.216 345.725 290.728 307.717 259.103C268.965 226.858 216.366 202.134 159.45 196.521C120.011 192.591 80.7001 197.445 43.4215 203.606C37.6092 204.566 31.8894 205.819 26.185 206.563C-104.143 223.507 -185.534 223.975 -251.16 285.458"
            stroke="#82b33c" stroke-opacity="0.4" stroke-width="0.864782" stroke-miterlimit="10" />
        <path
            d="M1211.27 726.352C1230.89 662.406 1190.87 607.734 1129.96 514.369C1115.91 492.843 1101.07 471.276 1080.24 456.44C1018.48 412.471 939.536 423.939 867.722 430.237C798.244 436.333 724.304 449.448 640.433 461.174C630.873 462.511 621.313 463.938 611.735 465.253C562.842 471.943 509.046 476.302 469.464 456.762C429.019 437 414.028 401.238 396.389 370.02C375.667 333.339 349.052 296.826 310.761 266.807C271.607 236.107 219.326 212.546 163.132 206.908C124.098 202.946 85.2825 207.227 48.5157 212.548C42.7754 213.377 37.1272 214.51 31.51 215.096C-99.4272 228.79 -177.023 222.253 -239.534 280.852"
            stroke="#82b33c" stroke-opacity="0.4" stroke-width="0.864782" stroke-miterlimit="10" />
        <path
            d="M1215.35 722.911C1233.99 662.115 1191.18 612.062 1128.71 518.296C1114.59 497.093 1099.86 475.819 1079.46 460.983C1018.83 416.891 942.36 425.497 871.166 430.38C803.157 435.047 730.16 447.071 646.486 458.196C637.026 459.453 627.57 460.813 618.091 462.06C569.712 468.416 516.728 472.565 477.172 454.193C436.822 435.451 420.612 401.672 401.927 372.187C379.927 337.477 352.36 302.944 313.786 274.524C274.221 245.377 222.261 222.978 166.792 217.306C128.164 213.312 89.8396 217.019 53.5848 221.499C47.9192 222.2 42.339 223.2 36.8059 223.636C-94.7641 234.02 -168.539 220.518 -227.936 276.233"
            stroke="#82b33c" stroke-opacity="0.4" stroke-width="0.864782" stroke-miterlimit="10" />
        <path
            d="M1219.42 719.468C1237.08 661.825 1191.5 616.392 1127.47 522.232C1113.27 501.351 1098.65 480.371 1078.69 465.537C1019.18 421.322 945.194 427.075 874.619 430.523C808.086 433.775 736.031 444.69 652.55 455.209C643.195 456.386 633.837 457.679 624.463 458.859C576.596 464.885 524.376 468.895 484.9 451.613C444.597 433.969 427.209 402.099 407.483 374.347C384.205 341.61 355.683 309.059 316.831 282.247C276.851 254.654 225.22 233.419 170.471 227.717C132.249 223.686 94.4155 226.822 58.6771 230.46C53.0836 231.029 47.5699 231.9 42.1235 232.191C-90.1035 239.197 -160.033 218.784 -216.313 271.608"
            stroke="#82b33c" stroke-opacity="0.4" stroke-width="0.864782" stroke-miterlimit="10" />
        <path
            d="M1223.49 716.025C1240.17 661.541 1191.84 620.723 1126.21 526.181C1111.93 505.622 1097.43 484.938 1077.9 470.104C1019.52 425.762 948.022 428.676 878.055 430.671C813.001 432.522 741.886 442.32 658.597 452.226C649.34 453.326 640.088 454.548 630.816 455.666C583.464 461.356 532.01 465.232 492.607 449.041C452.348 432.5 433.784 402.537 413.015 376.525C388.45 345.761 358.972 315.204 319.847 289.994C279.446 263.96 228.15 243.889 174.121 238.156C136.305 234.093 98.9631 236.653 63.7371 239.447C58.2199 239.885 52.7728 240.626 47.4147 240.767C-85.4823 244.322 -151.547 217.052 -204.715 266.984"
            stroke="#82b33c" stroke-opacity="0.4" stroke-width="0.864782" stroke-miterlimit="10" />
        <path
            d="M1227.56 712.583C1243.26 661.26 1192.19 625.058 1124.95 530.138C1110.61 509.896 1096.21 489.509 1077.12 474.679C1019.86 430.209 950.859 430.303 881.495 430.824C817.929 431.297 747.744 439.954 664.649 449.242C655.497 450.263 646.34 451.416 637.176 452.468C590.338 457.823 539.647 461.564 500.324 446.47C460.111 431.03 440.363 402.984 418.557 378.712C392.698 349.926 362.269 321.367 322.875 297.759C282.05 273.294 231.088 254.381 177.789 248.615C140.38 244.52 103.53 246.503 68.8221 248.449C63.3771 248.754 57.9957 249.356 52.7268 249.357C-80.8488 249.389 -143.043 215.32 -193.088 262.353"
            stroke="#82b33c" stroke-opacity="0.4" stroke-width="0.864782" stroke-miterlimit="10" />
        <path
            d="M1231.61 709.14C1246.34 660.988 1192.55 629.389 1123.68 534.106C1109.27 514.177 1094.98 494.095 1076.32 479.266C1020.19 434.669 953.684 431.959 884.923 430.977C822.846 430.09 753.595 437.589 670.692 446.251C661.643 447.196 652.59 448.273 643.524 449.26C597.199 454.283 547.271 457.889 508.027 443.886C467.859 429.552 446.918 403.423 424.086 380.889C396.927 354.088 365.547 327.53 325.891 305.52C284.639 282.625 234.021 264.87 181.441 259.076C144.443 254.946 108.082 256.35 73.8855 257.453C68.5128 257.625 63.2012 258.09 58.0158 257.952C-76.2368 254.373 -134.56 213.572 -181.486 257.704"
            stroke="#82b33c" stroke-opacity="0.4" stroke-width="0.864782" stroke-miterlimit="10" />
        <path
            d="M1235.67 705.698C1249.41 660.717 1192.92 633.727 1122.4 538.087C1107.94 518.474 1093.74 498.694 1075.52 483.865C1020.53 439.133 956.515 433.64 888.353 431.134C827.766 428.908 759.452 435.23 676.738 443.262C667.792 444.131 658.84 445.136 649.877 446.056C604.068 450.743 554.898 454.215 515.74 441.311C475.615 428.089 453.48 403.881 429.625 383.088C401.158 358.277 368.829 333.724 328.913 313.316C287.225 292 236.952 275.4 185.098 269.577C148.507 265.414 112.64 266.235 78.9594 266.495C73.6589 266.534 68.4147 266.856 63.3211 266.582C-71.6041 259.31 -126.056 211.847 -169.864 253.068"
            stroke="#82b33c" stroke-opacity="0.4" stroke-width="0.864782" stroke-miterlimit="10" />
        <path
            d="M1239.71 702.26C1252.48 660.457 1193.3 638.062 1121.11 542.089C1106.59 522.789 1092.49 503.314 1074.7 488.488C1020.84 443.625 959.325 435.366 891.767 431.313C832.67 427.767 765.29 432.896 682.77 440.286C673.923 441.077 665.076 442.011 656.216 442.868C610.923 447.218 562.515 450.558 523.436 438.749C483.357 426.637 460.017 404.358 435.145 385.307C405.36 362.495 372.092 339.954 331.917 321.142C289.791 301.416 239.872 285.967 188.745 280.11C152.561 275.914 117.184 276.151 84.0239 275.567C78.7999 275.474 73.6206 275.648 68.6132 275.24C-66.9689 264.188 -117.566 210.128 -158.253 248.438"
            stroke="#82b33c" stroke-opacity="0.4" stroke-width="0.864782" stroke-miterlimit="10" />
        <path
            d="M1243.74 698.818C1255.53 660.2 1193.68 642.399 1119.81 546.099C1105.24 527.104 1091.24 507.943 1073.87 493.122C1021.16 448.121 962.132 437.125 895.177 431.493C837.567 426.644 771.124 430.561 688.799 437.308C680.055 438.023 671.31 438.885 662.554 439.675C617.775 443.69 570.132 446.894 531.136 436.183C491.097 425.186 466.557 404.841 440.67 387.527C409.565 366.725 375.35 346.194 334.923 328.977C292.357 310.848 242.789 296.547 192.389 290.661C156.611 286.432 121.732 286.081 89.0821 284.653C83.9305 284.426 78.8243 284.454 73.8975 283.915C-62.3157 268.994 -109.083 208.415 -146.645 243.805"
            stroke="#82b33c" stroke-opacity="0.4" stroke-width="0.864782" stroke-miterlimit="10" />
        <path
            d="M1247.76 695.375C1258.57 659.947 1194.08 646.73 1118.5 550.122C1103.88 531.435 1089.96 512.588 1073.03 497.77C1021.45 452.636 964.912 438.922 898.575 431.682C842.453 425.554 776.954 428.239 694.818 434.335C686.178 434.974 677.531 435.762 668.883 436.485C624.62 440.162 577.739 443.237 538.823 433.624C498.83 423.742 473.078 405.348 446.18 389.768C413.748 370.983 378.593 352.47 337.919 336.841C294.912 320.316 245.702 307.162 196.024 301.245C160.656 296.98 126.268 296.041 94.1373 293.772C89.0581 293.411 84.0227 293.288 79.1846 292.619C-57.6266 273.734 -100.594 206.711 -135.032 239.18"
            stroke="#82b33c" stroke-opacity="0.4" stroke-width="0.864782" stroke-miterlimit="10" />
        <path
            d="M1251.77 691.932C1261.59 659.703 1194.48 651.062 1117.17 554.163C1102.51 535.785 1088.68 517.252 1072.18 502.439C1021.75 457.166 967.681 440.765 901.966 431.886C847.323 424.501 782.773 425.934 700.836 431.368C692.297 431.935 683.753 432.646 675.205 433.301C631.46 436.639 585.341 439.585 546.512 431.07C506.561 422.311 479.599 405.869 451.691 392.021C417.932 375.269 381.836 358.77 340.915 344.732C297.458 329.823 248.611 317.808 199.663 311.857C164.702 307.559 130.811 306.031 99.1925 302.915C94.19 302.422 89.2228 302.142 84.4679 301.346C-52.9013 278.407 -92.1028 205.023 -123.414 234.561"
            stroke="#82b33c" stroke-opacity="0.4" stroke-width="0.864782" stroke-miterlimit="10" />
        <path
            d="M1255.76 688.49C1264.61 659.462 1194.88 655.388 1115.83 558.223C1101.12 540.149 1087.38 521.934 1071.31 507.13C1022.02 461.72 970.422 442.661 905.337 432.112C852.164 423.491 788.574 423.658 706.834 428.423C698.398 428.913 689.956 429.552 681.513 430.139C638.284 433.141 592.93 435.954 554.185 428.542C514.279 420.906 486.104 406.426 457.194 394.307C422.101 379.598 385.066 365.121 343.899 352.664C299.995 339.38 251.514 328.498 203.293 322.521C168.74 318.191 135.345 316.066 104.245 312.11C99.3153 311.483 94.4204 311.047 89.7513 310.13C-48.1245 283.043 -83.6131 203.378 -111.796 229.98"
            stroke="#82b33c" stroke-opacity="0.4" stroke-width="0.864782" stroke-miterlimit="10" />
        <path
            d="M1259.74 685.048C1267.6 659.23 1195.29 659.706 1114.47 562.297C1099.73 544.527 1086.07 526.634 1070.43 511.839C1022.29 466.29 973.14 444.604 908.704 432.35C856.992 422.515 794.376 421.394 712.83 425.485C704.497 425.902 696.159 426.464 687.818 426.987C645.107 429.649 600.516 432.336 561.855 426.021C521.993 419.512 492.603 407.002 462.688 396.609C426.263 383.953 388.287 371.497 346.879 360.624C302.529 348.976 254.413 339.224 206.916 333.217C172.773 328.855 139.874 326.133 109.289 321.334C104.432 320.573 99.6149 319.978 95.0235 318.937C-43.3007 287.616 -75.1303 201.744 -100.185 225.408"
            stroke="#82b33c" stroke-opacity="0.4" stroke-width="0.864782" stroke-miterlimit="10" />
        <path
            d="M1263.69 681.606C1270.57 658.999 1195.7 664.02 1113.09 566.386C1098.31 548.915 1084.73 531.35 1069.52 516.566C1022.54 470.882 975.821 446.599 912.049 432.604C861.787 421.576 800.156 419.148 718.81 422.556C710.579 422.9 702.344 423.385 694.109 423.84C651.92 426.162 608.094 428.719 569.516 423.506C529.698 418.127 499.098 407.6 468.173 398.927C430.421 388.336 391.5 377.906 349.848 368.603C305.05 358.602 257.298 349.972 210.533 343.933C176.8 339.535 144.4 336.221 114.332 330.574C109.55 329.674 104.807 328.92 100.296 327.759C-38.4185 292.117 -66.6462 200.121 -88.571 220.839"
            stroke="#82b33c" stroke-opacity="0.4" stroke-width="0.864782" stroke-miterlimit="10" />
        <path
            d="M1267.63 678.083C1273.53 658.696 1196.11 668.245 1111.71 570.426C1096.89 553.259 1083.4 536.027 1068.62 521.251C1022.79 475.436 978.48 448.595 915.4 432.833C866.572 420.633 805.942 416.889 724.803 419.604C716.674 419.875 708.545 420.279 700.408 420.669C658.739 422.653 615.665 425.149 577.187 420.971C537.404 416.794 505.603 408.188 473.673 401.23C434.592 392.716 394.733 384.311 352.839 376.585C307.597 368.239 260.213 360.731 214.175 354.663C180.854 350.234 148.953 346.318 119.401 339.832C114.695 338.799 110.028 337.881 105.596 336.605C-33.4285 296.564 -58.1215 198.535 -76.92 216.302"
            stroke="#82b33c" stroke-opacity="0.4" stroke-width="0.864782" stroke-miterlimit="10" />
        <path
            d="M1271.57 673.756C1276.49 657.622 1196.58 671.657 1110.36 573.83C1095.52 556.989 1082.11 540.12 1067.77 525.381C1023.12 479.51 981.196 450.185 918.852 432.646C871.455 419.311 811.864 414.246 730.954 416.256C722.934 416.454 714.903 416.779 706.879 417.1C665.743 418.74 623.454 421.098 585.07 418.035C545.347 414.992 512.352 408.395 479.416 403.163C439.03 396.746 398.234 390.382 356.11 384.231C310.438 377.562 263.432 371.177 218.144 365.091C185.247 360.639 153.856 356.13 124.827 348.814C120.196 347.649 115.616 346.567 111.256 345.175C-27.9588 300.724 -49.1927 196.902 -64.8541 211.689"
            stroke="#82b33c" stroke-opacity="0.4" stroke-width="0.864782" stroke-miterlimit="10" />
        <path
            d="M1275.5 669.446C1279.43 656.553 1197.05 675.043 1109.02 577.233C1094.16 560.72 1080.83 544.209 1066.92 529.512C1023.44 483.578 983.884 451.815 922.305 432.475C876.322 418.034 817.789 411.635 737.107 412.936C729.191 413.064 721.269 413.308 713.35 413.565C672.747 414.861 631.24 417.081 592.95 415.133C553.292 413.218 519.102 408.634 485.163 405.12C443.469 400.8 401.744 396.469 359.385 391.884C313.289 386.897 266.661 381.62 222.116 375.516C189.64 371.04 158.762 365.938 130.258 357.797C125.702 356.495 121.208 355.254 116.92 353.747C-22.4053 304.831 -40.2581 195.298 -52.7811 207.116"
            stroke="#82b33c" stroke-opacity="0.4" stroke-width="0.864782" stroke-miterlimit="10" />
        <path
            d="M1279.42 665.138C1282.37 655.483 1197.53 678.391 1107.67 580.625C1092.79 564.432 1079.56 548.266 1066.05 533.631C1023.86 487.568 986.527 453.479 925.746 432.313C881.149 416.778 823.696 409.046 743.251 409.634C735.44 409.689 727.624 409.855 719.812 410.044C679.743 411.001 639.023 413.08 600.829 412.241C561.234 411.451 525.854 408.881 490.908 407.072C447.922 404.845 405.261 402.551 362.665 399.522C316.145 396.218 269.893 392.046 226.093 385.924C194.041 381.42 163.695 375.683 135.691 366.766C131.218 365.326 126.805 363.925 122.59 362.312C-16.757 308.881 -31.3176 193.726 -40.706 202.578"
            stroke="#82b33c" stroke-opacity="0.4" stroke-width="0.864782" stroke-miterlimit="10" />
        <path
            d="M1283.33 660.833C1285.29 654.403 1198.03 681.699 1106.31 584.006C1091.41 568.132 1078.26 552.341 1065.19 537.741C1024.16 491.643 989.138 455.178 929.189 432.155C885.953 415.549 829.604 406.482 749.399 406.342C741.692 406.328 733.985 406.413 726.277 406.533C686.742 407.147 646.804 409.089 608.707 409.356C569.175 409.688 532.616 409.129 496.655 409.021C452.38 408.889 408.786 408.621 365.946 407.143C319.014 405.525 273.13 402.448 230.074 396.308C198.443 391.781 168.607 385.467 141.133 375.718C136.734 374.146 132.412 372.585 128.265 370.855C-11.0161 312.863 -22.3648 192.168 -28.6258 198.063"
            stroke="#82b33c" stroke-opacity="0.4" stroke-width="0.864782" stroke-miterlimit="10" />
        <path
            d="M1287.23 656.543C1288.21 653.334 1198.55 684.975 1104.96 587.387C1090.04 571.83 1076.96 556.419 1064.33 541.852C1024.45 495.724 991.703 456.918 932.631 432.014C890.729 414.349 835.501 404.043 755.547 403.08C747.944 403.006 740.344 403.002 732.744 403.053C693.744 403.327 654.594 405.132 616.592 406.506C577.126 407.961 539.391 409.448 502.412 410.992C456.855 413.002 412.322 414.783 369.245 414.772C321.899 414.916 276.387 412.85 234.08 406.69C202.871 402.14 173.55 395.249 146.596 384.671C142.272 382.969 138.045 381.239 133.963 379.402C-5.15583 316.809 -13.395 190.65 -16.523 193.59"
            stroke="#82b33c" stroke-opacity="0.4" stroke-width="0.864782" stroke-miterlimit="10" />
        <path
            d="M1291.11 652.269C1291.11 652.269 1199.08 688.217 1103.59 590.761C1008.1 493.306 991.548 404.458 761.682 399.835C531.815 395.212 303.006 458.763 152.054 393.602C1.10118 328.441 -4.42674 189.147 -4.42674 189.147"
            stroke="#82b33c" stroke-opacity="0.4" stroke-width="0.864782" stroke-miterlimit="10" />
        <path
            d="M1402.67 649.309C1401.86 616.606 1372.33 588.424 1337.63 575.454C1302.93 562.484 1263.88 561.942 1226.12 563.278C1148.02 566.035 1070.25 575.908 992.094 574.932C913.943 573.955 833.42 561.14 768.974 522.861C729.35 499.327 697.237 467.048 656.454 445.051C574.681 400.94 471.644 404.221 377.61 386.034C306.465 372.272 292.229 336.072 271.047 282.548C250.485 230.591 207.237 185.623 151.932 158.695C96.6282 131.767 29.7719 123.13 -32.209 134.901"
            stroke="#82b33c" stroke-opacity="0.4" stroke-width="0.864782" stroke-miterlimit="10" />
        <path
            d="M1405.6 645.623C1402.67 614.303 1371.93 586.931 1336.26 574.782C1300.52 562.647 1260.53 562.472 1221.77 563.763C1143.34 566.435 1065.12 575.374 987.281 572.851C909.672 570.492 830.488 556 765.997 517.707C726.508 494.258 694.091 462.632 653.284 441.049C571.514 397.782 469.083 400.719 375.444 382.564C304.726 368.855 289.096 333.261 266.974 280.564C245.762 229.552 202.862 184.966 147.615 159.343C92.5207 133.68 26.4321 126.162 -35.0749 138.064"
            stroke="#82b33c" stroke-opacity="0.4" stroke-width="0.864782" stroke-miterlimit="10" />
        <path
            d="M1408.53 641.934C1403.49 612.001 1371.55 585.433 1334.91 574.104C1298.12 562.804 1257.2 562.993 1217.43 564.247C1138.65 566.832 1060.01 574.683 982.48 570.767C905.424 566.875 827.565 550.852 763.033 512.547C723.675 489.184 690.96 458.206 650.124 437.037C568.361 394.617 466.536 397.21 373.286 379.088C302.995 365.433 285.791 330.51 262.91 278.571C240.878 228.56 198.498 184.302 143.304 159.979C88.4163 135.578 23.0954 129.179 -37.9337 141.214"
            stroke="#82b33c" stroke-opacity="0.4" stroke-width="0.864782" stroke-miterlimit="10" />
        <path
            d="M1411.46 638.245C1404.31 609.696 1371.16 583.937 1333.55 573.429C1295.72 562.964 1253.86 563.519 1213.08 564.729C1133.97 567.228 1054.89 574.073 977.672 568.68C901.171 563.338 824.638 545.705 760.062 507.383C720.839 484.105 687.825 453.782 646.959 433.028C565.2 391.453 463.981 393.698 371.123 375.615C301.26 362.013 282.58 327.731 258.836 276.582C236.073 227.548 194.05 183.766 138.982 160.622C84.2353 137.611 19.7455 132.208 -40.8056 144.374"
            stroke="#82b33c" stroke-opacity="0.4" stroke-width="0.864782" stroke-miterlimit="10" />
        <path
            d="M1414.39 634.555C1405.13 607.395 1370.78 582.437 1332.19 572.753C1293.32 563.124 1250.52 564.042 1208.74 565.214C1129.29 567.627 1049.78 573.474 972.868 566.597C896.921 559.81 821.715 540.56 757.095 502.225C718.003 479.03 684.69 449.357 643.799 429.02C562.043 388.29 461.43 390.19 368.967 372.139C299.53 358.591 279.38 324.948 254.772 274.592C231.291 226.535 189.669 183.146 134.671 161.261C80.1153 139.551 16.4129 135.229 -43.6643 147.527"
            stroke="#82b33c" stroke-opacity="0.4" stroke-width="0.864782" stroke-miterlimit="10" />
        <path
            d="M1417.32 630.87C1405.94 605.093 1370.39 580.946 1330.82 572.081C1290.91 563.286 1247.17 564.573 1204.38 565.702C1124.59 568.028 1044.66 572.88 968.05 564.516C892.664 556.289 818.774 535.418 754.114 497.067C715.157 473.96 681.541 444.937 640.626 425.013C558.877 385.13 458.867 386.68 366.796 368.668C297.786 355.174 276.169 322.174 250.694 272.607C226.495 225.526 185.274 182.528 130.349 161.908C75.9875 141.502 13.0644 138.259 -46.5363 150.693"
            stroke="#82b33c" stroke-opacity="0.4" stroke-width="0.864782" stroke-miterlimit="10" />
        <path
            d="M1420.26 627.18C1406.77 602.791 1370.02 579.369 1329.47 571.407C1288.53 563.369 1243.84 565.101 1200.05 566.185C1119.92 568.425 1039.57 572.286 963.253 562.435C888.425 552.775 815.86 530.274 751.158 491.914C712.331 468.891 678.417 440.519 637.472 421.01C555.727 381.972 456.323 383.177 364.646 365.197C296.064 351.756 272.988 319.399 246.637 270.622C221.728 224.52 180.906 181.908 126.043 162.555C71.8781 143.449 9.73554 141.293 -49.3899 153.854"
            stroke="#82b33c" stroke-opacity="0.4" stroke-width="0.864782" stroke-miterlimit="10" />
        <path
            d="M1423.19 623.491C1407.58 600.486 1369.64 577.865 1328.11 570.731C1286.13 563.52 1240.5 565.623 1195.7 566.67C1115.23 568.824 1034.45 571.7 958.441 560.351C884.179 549.26 812.924 525.13 748.183 486.754C709.492 463.815 675.274 436.096 634.305 417C552.563 378.807 453.764 379.668 362.481 361.723C294.326 348.336 269.8 316.623 242.562 268.63C216.953 223.505 176.52 181.28 121.721 163.191C67.7579 145.382 6.38765 144.311 -52.2612 157.007"
            stroke="#82b33c" stroke-opacity="0.4" stroke-width="0.864782" stroke-miterlimit="10" />
        <path
            d="M1426.12 619.802C1408.4 598.185 1369.25 576.361 1326.75 570.056C1283.72 563.675 1237.16 566.068 1191.36 567.153C1110.55 569.073 1029.35 571.118 953.637 558.266C879.938 545.755 810.002 519.985 745.217 481.593C706.657 458.736 672.141 431.669 631.144 412.993C549.407 375.641 451.214 376.158 360.32 358.247C292.591 344.916 266.617 313.845 238.494 266.639C212.19 222.49 172.148 180.648 117.409 163.834C63.6484 147.318 3.05309 147.337 -55.126 160.163"
            stroke="#82b33c" stroke-opacity="0.4" stroke-width="0.864782" stroke-miterlimit="10" />
        <path
            d="M1429.06 616.117C1409.22 595.883 1368.86 574.862 1325.39 569.384C1281.32 563.834 1233.82 566.59 1187.01 567.642C1105.87 569.468 1024.25 570.551 948.832 556.186C875.699 542.257 807.075 514.842 742.249 476.437C703.823 453.668 669.008 427.252 627.98 408.986C546.25 372.481 448.659 372.652 358.158 354.776C290.856 341.499 263.441 311.072 234.424 264.655C207.43 221.483 167.775 180.023 113.092 164.477C59.5404 149.253 -0.290947 150.366 -57.9907 163.321"
            stroke="#82b33c" stroke-opacity="0.4" stroke-width="0.864782" stroke-miterlimit="10" />
        <path
            d="M1431.99 612.427C1410.04 593.581 1368.47 573.358 1324.03 568.71C1278.92 563.99 1230.48 567.111 1182.67 568.129C1101.18 569.861 1019.15 569.985 944.026 554.105C871.458 538.769 804.149 509.701 739.278 471.282C700.984 448.597 665.87 422.832 624.816 404.982C543.09 369.322 446.106 369.145 355.996 351.309C289.122 338.085 260.277 308.301 230.352 262.672C202.678 220.472 163.4 179.395 108.772 165.126C55.4296 151.19 -3.63362 153.398 -60.8609 166.487"
            stroke="#82b33c" stroke-opacity="0.4" stroke-width="0.864782" stroke-miterlimit="10" />
        <path
            d="M1434.93 608.738C1410.86 591.276 1368.09 571.858 1322.67 568.035C1276.51 564.144 1227.14 567.633 1178.33 568.611C1096.5 570.253 1014.05 569.418 939.22 552.022C867.219 535.279 801.226 504.555 736.311 466.123C698.152 443.522 662.736 418.407 621.656 400.973C539.933 366.159 443.554 365.637 353.84 347.832C287.392 334.662 257.122 305.518 226.288 260.681C197.939 219.454 159.039 178.757 104.465 165.765C51.3328 153.116 -6.96643 156.419 -63.7158 169.64"
            stroke="#82b33c" stroke-opacity="0.4" stroke-width="0.864782" stroke-miterlimit="10" />
        <path
            d="M1437.86 605.048C1411.67 588.974 1367.69 570.361 1321.31 567.358C1274.1 564.303 1223.79 568.155 1173.98 569.096C1091.81 570.647 1008.94 568.862 934.407 549.937C862.966 531.799 798.289 499.41 733.334 460.962C695.305 438.448 659.59 413.984 618.485 396.967C536.766 362.997 440.994 362.128 351.671 344.362C285.651 331.245 253.965 302.74 222.214 258.693C193.195 218.437 154.669 178.118 100.142 166.409C47.2268 155.042 -10.3127 159.449 -66.5882 172.802"
            stroke="#82b33c" stroke-opacity="0.4" stroke-width="0.864782" stroke-miterlimit="10" />
        <path
            d="M1440.79 601.363C1412.5 586.676 1367.31 568.865 1319.95 566.687C1271.7 564.465 1220.46 568.682 1169.64 569.582C1087.14 571.048 1003.84 568.315 929.606 547.856C858.732 528.322 795.371 494.266 730.375 455.805C692.482 433.376 656.464 409.562 615.329 392.96C533.618 359.836 438.447 358.621 349.519 340.886C283.926 327.823 250.826 299.954 218.155 256.704C188.475 217.418 150.316 177.475 95.8363 167.048C43.1377 156.963 -13.6447 162.471 -69.4423 175.955"
            stroke="#82b33c" stroke-opacity="0.4" stroke-width="0.864782" stroke-miterlimit="10" />
        <path
            d="M1443.72 597.674C1413.31 584.371 1366.92 567.368 1318.59 566.012C1269.29 564.628 1217.12 569.206 1165.29 570.068C1082.45 571.447 998.735 567.772 924.796 545.773C854.483 524.855 792.437 489.123 727.402 450.646C689.64 428.3 653.322 405.141 612.163 388.951C530.455 356.673 435.89 355.113 347.356 337.414C282.19 324.404 247.689 297.171 214.079 254.716C183.745 216.398 145.952 176.831 91.5128 167.692C39.0339 158.882 -16.9944 165.497 -72.314 179.113"
            stroke="#82b33c" stroke-opacity="0.4" stroke-width="0.864782" stroke-miterlimit="10" />
        <path
            d="M1446.66 593.985C1414.13 582.07 1366.53 565.873 1317.24 565.334C1266.89 564.784 1213.78 569.727 1160.95 570.551C1077.77 571.848 993.631 567.231 919.995 543.691C850.242 521.393 789.517 483.982 724.437 445.492C686.81 423.234 650.195 400.722 609.006 384.947C527.301 353.514 433.344 351.606 345.202 333.943C280.464 320.986 244.564 294.386 210.019 252.73C179.041 215.376 141.6 176.184 87.2079 168.34C34.9461 160.8 -20.3226 168.531 -75.1684 182.279"
            stroke="#82b33c" stroke-opacity="0.4" stroke-width="0.864782" stroke-miterlimit="10" />
        <path
            d="M1449.59 590.295C1414.95 579.764 1366.14 564.375 1315.87 564.658C1264.48 564.946 1210.44 570.253 1156.6 571.032C1073.09 572.244 988.521 566.694 915.184 541.603C845.986 517.926 786.589 478.831 721.464 440.328C683.967 418.152 647.053 396.295 605.838 380.937C524.142 350.347 430.785 348.097 343.037 330.468C278.725 317.565 241.438 291.593 205.946 250.742C174.326 214.347 137.237 175.532 82.8883 168.98C30.849 162.708 -23.6684 171.553 -78.0402 185.432"
            stroke="#82b33c" stroke-opacity="0.4" stroke-width="0.864782" stroke-miterlimit="10" />
        <path
            d="M1452.52 586.61C1415.76 577.465 1365.75 562.888 1314.51 563.986C1262.08 565.113 1207.1 570.783 1152.26 571.521C1068.4 572.651 983.405 566.171 910.379 539.525C841.736 514.478 783.66 473.692 718.495 435.173C681.134 413.082 643.917 391.875 602.673 376.932C520.981 347.187 428.23 344.588 340.871 326.994C276.991 314.146 238.318 288.794 201.871 248.749C169.619 213.309 132.875 174.867 78.5646 169.618C26.7492 164.611 -27.0141 174.575 -80.9136 188.588"
            stroke="#82b33c" stroke-opacity="0.4" stroke-width="0.864782" stroke-miterlimit="10" />
        <path
            d="M1455.45 582.921C1416.58 575.16 1365.36 561.391 1313.15 563.311C1259.67 565.276 1203.75 571.31 1147.91 572.007C1063.72 573.058 978.286 565.651 905.568 537.442C837.479 511.028 780.731 468.546 715.522 430.013C678.291 408.009 640.775 387.453 599.507 372.923C517.818 344.023 425.673 341.08 338.707 323.521C275.254 310.726 235.206 285.994 197.799 246.762C164.918 212.273 128.518 174.204 74.2504 170.261C22.6563 166.513 -30.3559 177.603 -83.7759 191.744"
            stroke="#82b33c" stroke-opacity="0.4" stroke-width="0.864782" stroke-miterlimit="10" />
        <path
            d="M1458.39 579.232C1417.4 572.859 1364.98 559.9 1311.79 562.637C1257.27 565.444 1200.42 571.939 1143.57 572.491C1059.04 573.607 973.173 565.133 900.768 535.357C833.228 507.583 777.809 463.401 712.558 424.856C675.463 402.936 637.644 383.03 596.351 368.916C514.665 340.862 423.126 337.574 336.553 320.05C273.528 307.309 232.11 283.191 193.738 244.777C160.236 211.239 124.172 173.541 69.9411 170.908C18.5711 168.413 -33.6872 180.633 -86.6334 194.906"
            stroke="#82b33c" stroke-opacity="0.4" stroke-width="0.864782" stroke-miterlimit="10" />
        <path
            d="M1461.33 575.543C1418.23 570.554 1364.6 558.494 1310.44 561.961C1254.88 565.696 1197.09 572.462 1139.23 572.976C1054.36 574.007 968.051 564.622 895.963 533.277C828.968 504.146 774.885 458.258 709.59 419.7C672.626 397.863 634.507 378.612 593.184 364.913C511.506 337.705 420.569 334.068 334.39 316.579C271.792 303.891 229.013 280.382 189.668 242.792C155.548 210.197 119.815 172.872 65.624 171.551C14.4781 170.308 -37.0303 183.659 -89.5 198.067"
            stroke="#82b33c" stroke-opacity="0.4" stroke-width="0.864782" stroke-miterlimit="10" />
        <path
            d="M1464.26 571.857C1419.04 568.256 1364.21 557.002 1309.07 561.289C1252.47 565.858 1193.74 572.992 1134.88 573.462C1049.68 574.405 962.922 564.115 891.156 531.195C824.7 500.712 771.955 453.115 706.624 414.542C669.796 392.79 631.374 374.188 590.026 360.906C508.351 334.543 418.02 330.561 332.234 313.108C270.063 300.474 225.931 277.563 185.601 240.806C150.872 209.145 115.458 172.197 61.3122 172.198C10.3893 172.199 -40.3641 186.689 -92.36 201.228"
            stroke="#82b33c" stroke-opacity="0.4" stroke-width="0.864782" stroke-miterlimit="10" />
        <path
            d="M1467.19 568.168C1419.86 565.951 1363.83 555.502 1307.71 560.613C1250.07 566.022 1190.41 573.515 1130.54 573.947C1044.99 574.805 957.79 563.61 886.347 529.111C820.429 497.28 769.027 447.973 703.653 409.382C666.955 387.717 628.239 369.767 586.862 356.897C505.191 331.379 415.467 327.049 330.074 309.631C268.33 297.05 222.846 274.734 181.535 238.811C146.197 208.084 111.102 171.506 56.9982 172.835C6.28996 174.078 -43.7098 189.71 -95.2277 204.381"
            stroke="#82b33c" stroke-opacity="0.4" stroke-width="0.864782" stroke-miterlimit="10" />
        <path
            d="M1470.12 564.478C1420.68 563.649 1363.44 554.007 1306.36 559.939C1247.66 566.182 1187.06 574.043 1126.19 574.434C1040.31 575.205 952.65 563.112 881.542 527.03C816.156 493.854 766.105 442.829 700.686 404.225C664.123 382.644 625.104 365.344 583.702 352.89C502.034 328.217 412.916 323.543 327.917 306.16C266.599 293.633 219.771 271.903 177.47 236.826C141.531 207.024 106.746 170.825 52.6862 173.479C2.20374 175.959 -47.0438 192.737 -98.0837 207.54"
            stroke="#82b33c" stroke-opacity="0.4" stroke-width="0.864782" stroke-miterlimit="10" />
        <path
            d="M1473.06 560.79C1421.5 561.345 1363.05 552.507 1305 559.264C1245.26 566.342 1183.73 574.567 1121.85 574.916C1035.63 575.598 947.511 562.618 876.736 524.944C811.877 490.424 763.175 437.682 697.715 399.066C661.283 377.568 621.967 360.919 580.535 348.88C498.875 325.05 410.357 320.034 325.753 302.683C264.863 290.209 216.694 269.057 173.395 234.833C136.858 205.949 102.379 170.127 48.3629 174.118C-1.90464 177.828 -50.3891 195.759 -100.961 210.696"
            stroke="#82b33c" stroke-opacity="0.4" stroke-width="0.864782" stroke-miterlimit="10" />
        <path
            d="M1475.99 557.104C1422.31 559.045 1362.66 551.015 1303.63 558.592C1242.86 566.505 1180.38 575.097 1117.5 575.405C1030.94 576 942.36 562.128 871.926 522.868C807.592 487.009 760.247 432.543 694.743 393.914C658.445 372.504 618.825 356.505 577.368 344.882C495.712 321.897 407.801 316.533 323.588 299.221C263.126 286.8 213.623 266.222 169.323 232.857C132.19 204.887 98.011 169.445 44.0483 174.771C-6.00434 179.711 -53.7312 198.798 -103.823 213.864"
            stroke="#82b33c" stroke-opacity="0.4" stroke-width="0.864782" stroke-miterlimit="10" />
        <path
            d="M1478.92 553.415C1423.13 556.74 1362.28 549.517 1302.27 557.916C1240.45 566.664 1177.04 575.62 1113.16 575.887C1026.26 576.397 937.209 561.637 867.119 520.781C803.305 483.584 757.317 427.396 691.773 388.75C655.607 367.424 615.689 352.076 574.205 340.87C492.553 318.73 405.248 313.021 321.424 295.743C261.389 283.376 210.553 263.358 165.254 230.862C127.526 203.798 93.6424 168.738 39.7302 175.408C-10.1102 181.573 -57.0714 201.818 -106.69 217.014"
            stroke="#82b33c" stroke-opacity="0.4" stroke-width="0.864782" stroke-miterlimit="10" />
        <path
            d="M1481.85 549.725C1423.95 554.438 1361.89 548.02 1300.92 557.238C1238.06 566.822 1173.71 576.144 1108.81 576.369C1021.58 576.792 932.053 561.145 862.312 518.694C799.012 480.162 754.392 422.246 688.804 383.587C652.772 362.345 612.55 347.65 571.043 336.857C489.398 315.563 402.696 309.505 319.266 292.262C259.656 279.952 207.494 260.486 161.188 228.867C122.865 202.702 89.275 168.028 35.4173 176.041C-14.2149 183.43 -60.4103 204.833 -109.552 220.165"
            stroke="#82b33c" stroke-opacity="0.4" stroke-width="0.864782" stroke-miterlimit="10" />
        <path
            d="M1484.79 546.036C1424.77 552.133 1361.51 546.521 1299.56 556.563C1235.65 566.98 1170.37 576.671 1104.47 576.854C1016.9 577.192 926.889 560.662 857.508 516.611C794.716 476.747 751.469 417.104 685.835 378.431C649.934 357.276 609.419 343.23 567.878 332.851C486.236 312.402 400.144 306.001 317.103 288.792C257.92 276.535 204.431 257.617 157.113 226.882C118.203 201.609 84.8968 167.322 31.0989 176.689C-18.3278 185.297 -63.7522 207.868 -112.419 223.327"
            stroke="#82b33c" stroke-opacity="0.4" stroke-width="0.864782" stroke-miterlimit="10" />
        <path
            d="M1487.72 542.351C1425.59 549.836 1361.12 545.031 1298.2 555.892C1233.25 567.148 1167.03 577.198 1100.13 577.341C1012.21 577.591 921.615 560.297 852.699 514.532C790.319 473.44 748.537 411.964 682.868 373.277C647.102 352.206 606.283 338.814 564.717 328.851C483.079 309.247 397.592 302.501 314.945 285.325C256.19 273.121 201.378 254.735 153.049 224.9C113.549 200.512 80.5196 166.617 26.7856 177.339C-22.4382 187.161 -67.0915 210.9 -115.282 226.495"
            stroke="#82b33c" stroke-opacity="0.4" stroke-width="0.864782" stroke-miterlimit="10" />
        <path
            d="M1490.65 538.661C1426.4 547.534 1360.73 543.53 1296.84 555.216C1230.84 567.306 1163.69 577.725 1095.78 577.826C1007.53 577.991 916.488 559.759 847.891 512.45C786.053 469.975 745.611 406.819 679.897 368.118C644.263 347.13 603.145 334.389 561.553 324.842C479.918 306.084 395.038 298.99 312.784 281.852C254.456 269.702 198.319 251.844 148.98 222.913C108.888 199.405 76.1176 165.846 22.47 177.981C-26.5748 188.963 -70.4292 213.925 -118.145 229.651"
            stroke="#82b33c" stroke-opacity="0.4" stroke-width="0.864782" stroke-miterlimit="10" />
        <path
            d="M1493.59 534.973C1427.22 545.23 1360.35 542.036 1295.48 554.542C1228.44 567.468 1160.35 578.25 1091.44 578.313C1002.85 578.392 911.367 559.227 843.087 510.368C781.792 466.508 742.683 401.677 676.93 362.96C641.43 342.06 600.009 329.969 558.393 320.835C476.766 302.923 392.487 295.483 310.628 278.377C252.727 266.281 195.269 248.94 144.914 220.92C104.233 198.284 71.751 165.18 18.1557 178.619C-30.6788 190.865 -73.771 216.949 -121.008 232.803"
            stroke="#82b33c" stroke-opacity="0.4" stroke-width="0.864782" stroke-miterlimit="10" />
    </g>
    <defs>
        <clipPath id="clip0_2736_17618">
            <rect width="1440" height="779" fill="white" />
        </clipPath>
    </defs>
</svg>